# Blender 4.0.1
# www.blender.org
o Plane
v -4.988267 -2.738057 0.000000
v -4.988267 2.738057 0.000000
v 4.988267 -2.738057 0.000000
v 4.988267 2.738057 0.000000
v -1.002256 -2.738057 0.000000
v -1.002256 2.738057 0.000000
v -4.988267 4.975061 0.000000
v -1.002256 4.975061 0.000000
v -1.002256 -2.738057 -3.253744
v -4.988267 -2.738057 -3.253744
v -4.988267 2.738057 -3.253744
v -1.002256 2.738057 -3.253744
v 4.988267 2.738057 -3.253744
v 4.988267 -2.738057 -3.253744
v -4.988267 4.975061 -3.253744
v -1.002256 4.975061 -3.253744
v -2.995262 -2.738057 -4.974677
v -2.995262 4.975061 -4.974677
v -4.988267 0.000000 -3.253744
v 4.988267 0.000000 -4.974677
v -2.995262 -2.738057 -5.132071
v -2.995262 4.975061 0.000000
v 4.988267 0.000000 0.000000
v -4.988267 -2.738057 -3.411137
v -4.988267 0.000000 -3.411137
v -4.988267 2.738057 -3.411137
v -1.002256 2.738057 -3.411137
v 4.988267 2.738057 -3.411137
v 4.988267 0.000000 -5.132071
v 4.988267 -2.738057 -3.411137
v -1.002256 -2.738057 -3.411137
v -2.995262 2.738057 -5.132071
v -2.995262 0.000000 -5.132071
v -2.995262 4.975061 -5.132071
v -1.002256 4.975061 -3.411137
v -4.988267 4.975061 -3.411137
v -2.995262 -3.123713 -4.974677
v -4.988267 -3.123713 -3.253744
v -1.002256 -3.123713 -3.253744
v -1.002256 -3.123713 -3.411137
v -1.002256 5.360717 -3.253744
v -1.002256 5.360717 -3.411137
v -2.995262 5.360717 -4.974677
v -4.988267 5.360717 -3.253744
v -2.995262 -3.123713 -5.132071
v -4.988267 -3.123713 -3.411137
v -4.988267 5.360717 -3.411137
v -2.995262 5.360717 -5.132071
v 4.988267 0.000000 -4.974677
v 4.988267 -2.738057 -3.253744
v 4.988267 2.738057 -3.411137
v 4.988267 2.738057 -3.253744
v 4.988267 0.000000 -5.132071
v 4.988267 -2.738057 -3.411137
v 5.457228 0.000000 -4.974677
v 5.457228 -2.738057 -3.253744
v 5.457228 2.738057 -3.411137
v 5.457228 2.738057 -3.253744
v 5.457228 0.000000 -5.132071
v 5.457228 -2.738057 -3.411137
v -0.740572 3.141553 -3.025344
v 4.988267 3.141553 -3.025344
v 4.988267 3.141553 -3.182737
v -0.740572 3.141553 -3.182737
v 4.988267 3.141553 -3.182737
v 4.988267 3.141553 -3.025344
v 5.457228 3.141553 -3.182737
v 5.457228 3.141553 -3.025344
v -0.740528 4.975061 -3.027359
v -0.740528 4.975061 -3.184753
v -5.288178 0.000000 -2.999312
v -5.288178 2.738057 -2.999312
v -0.740528 5.360717 -3.027359
v -0.740528 5.360717 -3.184753
v -5.288178 4.975061 -2.999312
v -5.288178 -2.738057 -2.999312
v -5.288178 -2.738057 -3.156706
v -5.288178 0.000000 -3.156706
v -5.288178 2.738057 -3.156706
v -5.288178 4.975061 -3.156706
v -5.288178 5.360717 -3.156706
v -5.288178 -3.123713 -2.999312
v -5.288178 -3.123713 -3.156706
v -5.288178 5.360717 -2.999312
v 4.988267 -3.110612 -3.014069
v -0.867780 -3.110612 -3.014069
v -0.867780 -3.110612 -3.171462
v 4.988267 -3.110612 -3.171462
v 4.988267 -3.110612 -3.014069
v 4.988267 -3.110612 -3.171462
v 5.457228 -3.110612 -3.014069
v 5.457228 -3.110612 -3.171462
v 1.993006 2.738057 0.000000
v 1.993006 2.738057 -3.253744
v 0.495375 2.738057 0.000000
v 0.495375 2.738057 -3.253744
v 1.993006 2.738057 -2.829189
v 0.495375 2.738057 -2.829189
v 0.495375 2.887141 0.000000
v 1.993006 2.887141 0.000000
v 1.993006 2.887141 -2.829189
v 0.495375 2.887141 -2.829189
v 0.701993 2.887141 -0.000000
v 1.786387 2.887141 -0.000000
v 1.786387 2.887141 -2.829189
v 0.701993 2.887141 -2.829189
v 0.701993 2.887141 -2.679725
v 1.786387 2.887141 -2.679725
v 0.702902 2.738057 0.000000
v 1.785478 2.738057 0.000000
v 0.701993 2.781703 -2.679725
v 1.786387 2.781703 -2.679725
v -2.995262 4.975061 -3.253744
v -4.988267 4.975061 -0.971989
v -4.988267 4.975061 -2.251379
v -1.002256 4.975061 -0.971989
v -1.002256 4.975061 -2.251379
v -2.995262 4.975061 -0.971989
v -2.995262 4.975061 -2.251379
v -4.199008 4.975061 -2.251379
v -4.199008 4.975061 -0.971989
v -1.791515 4.975061 -0.971989
v -1.791515 4.975061 -2.251379
v -1.791515 5.068389 -0.971989
v -2.995262 5.068389 -0.971989
v -1.791515 5.068389 -2.251379
v -2.995262 5.068389 -2.251379
v -4.199008 5.068389 -2.251379
v -4.199008 5.068389 -0.971989
v -4.199008 5.068389 -1.097156
v -4.199008 5.068389 -2.126211
v -1.791515 5.068389 -2.126211
v -1.791515 5.068389 -1.097156
v -1.933911 5.068389 -1.097156
v -4.056612 5.068389 -1.097156
v -1.933911 5.068389 -2.126211
v -4.056612 5.068389 -2.126211
v -1.933911 4.971663 -1.097156
v -4.056612 4.971663 -1.097156
v -1.933911 4.971663 -2.126211
v -4.056612 4.971663 -2.126211
vn -0.0000 -0.7071 0.7071
vn 0.3618 -0.6592 0.6592
vn 0.4812 -0.0000 0.8766
vn 0.3618 0.6592 0.6592
vn 0.1710 0.3116 0.9347
vn -0.2349 0.4333 0.8701
vn 0.2349 0.4333 0.8701
vn -0.1710 0.3116 0.9347
vn -0.3618 -0.6592 0.6592
vn -0.4812 -0.0000 0.8766
vn -0.0000 0.7072 0.7071
vn -0.3618 0.6592 0.6592
vn -0.6502 -0.0000 -0.7597
vn -0.8806 -0.0000 -0.4738
vn 0.3773 -0.8145 0.4408
vn 0.3407 -0.6682 0.6614
vn -0.1600 -0.0000 0.9871
vn -0.1333 -0.5534 0.8222
vn -0.0000 -0.2794 -0.9602
vn 0.4799 -0.4708 -0.7403
vn 0.3923 -0.8074 -0.4406
vn -0.0000 -0.8778 -0.4790
vn -0.2491 -0.8122 0.5276
vn 0.5130 -0.3160 -0.7981
vn 0.5155 0.3511 -0.7817
vn -0.0000 0.5037 0.8639
vn 0.1710 0.9347 -0.3116
vn -0.0000 -0.5577 0.8300
vn -0.4812 0.8766 -0.0000
vn -0.4811 0.8766 -0.0000
vn 0.3407 0.6682 0.6614
vn -0.0000 0.7071 0.7071
vn -0.1710 0.9347 0.3116
vn 0.3327 -0.0000 -0.9430
vn 0.3262 0.5237 0.7870
vn -0.3443 0.6707 0.6570
vn 0.4811 0.8766 -0.0000
vn 0.4812 0.8766 -0.0000
vn -0.0000 -0.9504 0.3110
vn -0.3285 -0.8818 0.3384
vn -0.0000 -0.0000 -1.0000
vn -0.0000 -0.9639 -0.2663
vn -0.0000 -0.5577 -0.8300
vn -0.3760 -0.8159 -0.4393
vn -0.0000 0.2658 -0.9640
vn -0.3760 0.8159 -0.4393
vn -0.0000 0.5577 -0.8300
vn -0.0000 1.0000 -0.0000
vn -0.0000 0.7071 -0.7071
vn -0.1890 -0.0000 -0.9820
vn 0.2936 0.3351 -0.8953
vn 0.6543 -0.0001 -0.7562
vn 0.3011 -0.3626 -0.8819
vn 0.4758 -0.4508 0.7552
vn 0.4867 0.4477 -0.7501
vn 0.3887 0.7960 -0.4641
vn 0.3439 0.4730 0.8112
vn -0.5058 -0.8186 -0.2721
vn 0.4423 -0.8183 -0.3672
vn -0.0000 0.9504 0.3110
vn -0.3780 0.8160 0.4374
vn 0.3781 0.8159 -0.4375
vn 0.3773 0.8145 0.4408
vn -0.1333 0.5534 0.8222
vn 0.5061 0.8198 -0.2679
vn 0.8842 -0.0001 -0.4672
vn -0.0000 0.5577 0.8300
vn -0.0000 0.9602 -0.2795
vn 0.4824 0.4700 0.7392
vn 0.6606 -0.0000 0.7507
vn 0.3847 -0.0000 -0.9231
vn -0.1048 0.2111 0.9718
vn -0.0000 0.8639 -0.5037
vn 0.4654 0.5666 -0.6800
vn -0.5058 0.8186 -0.2721
vn 0.1572 0.0002 0.9876
vn 0.1312 0.5529 0.8229
vn -0.0000 -0.4790 0.8778
vn -0.2485 -0.4519 0.8567
vn 0.1439 -0.9391 -0.3121
vn 0.3424 -0.4501 0.8247
vn -0.1710 0.9347 -0.3116
vn -0.4805 0.8770 0.0037
vn 0.3618 0.6592 -0.6592
vn -0.1709 0.9348 0.3114
vn -0.3618 0.6592 -0.6592
vn 0.4805 0.8770 0.0037
vn 0.1709 0.9348 0.3114
vn -0.3623 0.6543 0.6638
vn 0.3623 0.6543 0.6638
vn 0.1710 0.9347 0.3116
vt 0.608137 0.177938
vt 0.608137 0.021176
vt 0.480168 0.021176
vt 0.349000 0.021176
vt 0.349000 0.101156
vt 0.349000 0.107555
vt 0.349000 0.133148
vt 0.349000 0.139547
vt 0.349000 0.177937
vt 0.608137 0.283512
vt 0.349000 0.283512
vt 0.243426 0.177937
vt 0.243426 0.229125
vt 0.243426 0.283512
vt 0.428516 0.943438
vt 0.587070 0.943438
vt 0.587070 0.982813
vt 0.428516 0.982813
vt 0.910484 0.462169
vt 0.870243 0.462169
vt 0.870243 0.485643
vt 0.910484 0.485643
vt 0.378984 0.659727
vt 0.348359 0.659727
vt 0.348359 0.617617
vt 0.378984 0.617617
vt 0.890625 0.000000
vt 0.746094 0.000000
vt 0.746094 0.203125
vt 0.921875 0.203125
vt 0.488281 0.000000
vt 0.550781 0.000000
vt 0.550781 0.203125
vt 0.488281 0.203125
vt 0.488281 0.179688
vt 1.000000 0.000000
vt 0.890625 0.203125
vt 0.945312 0.312500
vt 1.000000 0.203125
vt 0.136719 0.000000
vt 0.195312 0.000000
vt 0.195312 0.058594
vt 0.195312 0.136719
vt 0.195312 0.203125
vt 0.136719 0.203125
vt 0.195312 0.066406
vt 0.261719 0.000000
vt 0.261719 0.066406
vt 0.214844 0.066406
vt 0.648438 0.000000
vt 0.648438 0.296875
vt 0.000000 0.001953
vt 0.066406 0.203125
vt 0.000000 0.205078
vt 0.421875 0.000000
vt 0.332031 0.000000
vt 0.332031 0.203125
vt 0.421875 0.203125
vt 0.421875 0.140625
vt 0.421875 0.062500
vt 0.521680 0.544336
vt 0.521680 0.459023
vt 0.541367 0.459023
vt 0.541367 0.544336
vt 0.316406 0.859375
vt 0.289062 0.863281
vt 0.289062 0.859375
vt 0.969922 0.943438
vt 0.969922 0.638281
vt 0.996992 0.638281
vt 0.996992 0.943438
vt 0.428516 0.638281
vt 0.401445 0.943438
vt 0.401445 0.638281
vt 0.332031 0.152344
vt 0.261719 0.203125
vt 0.261719 0.152344
vt 0.312500 0.152344
vt 0.582031 0.203125
vt 0.992605 0.626746
vt 0.844527 0.905816
vt 0.400292 0.905816
vt 0.400292 0.626746
vt 0.582891 0.981227
vt 0.791332 0.981227
vt 0.791332 0.625175
vt 0.587070 0.638281
vt 0.965742 0.981227
vt 0.965742 0.625175
vt 0.776563 0.943438
vt 0.776563 0.638281
vt 0.370195 0.981227
vt 0.370195 0.625175
vt 0.838359 0.659727
vt 0.991484 0.960508
vt 0.378984 0.960508
vt 0.267188 0.436523
vt 0.471094 0.436523
vt 0.471094 0.450586
vt 0.267188 0.450586
vt 0.471094 0.454102
vt 0.471094 0.464648
vt 0.502734 0.450586
vt 0.502734 0.440039
vt 0.595263 0.462169
vt 0.316929 0.462169
vt 0.316929 0.485643
vt 0.595263 0.485643
vt 0.996992 0.982813
vt 0.969922 0.982813
vt 0.379687 0.454102
vt 0.298828 0.580664
vt 0.298828 0.594727
vt 0.379687 0.464648
vt 0.136783 0.483776
vt 0.574630 0.490129
vt 0.548479 0.506307
vt 0.101915 0.505348
vt 0.217969 0.454102
vt 0.217969 0.464648
vt 0.277867 0.464133
vt 0.611666 0.461606
vt 0.638131 0.478234
vt 0.297716 0.476604
vt 0.915540 0.460890
vt 0.916326 0.493625
vt 0.978839 0.493485
vt 0.978053 0.460750
vt 0.340418 0.625175
vt 0.340418 0.981227
vt 0.995520 0.981227
vt 0.995520 0.625175
vt 0.995520 0.579233
vt 0.965742 0.579233
vt 0.696790 0.425734
vt 0.330640 0.426554
vt 0.233190 0.459509
vt 0.697576 0.458469
vt 0.387148 0.413086
vt 0.521680 0.366211
vt 0.521680 0.401602
vt 0.387148 0.401602
vt 0.348359 0.960508
vt 0.000000 0.859375
vt 0.125000 0.859375
vt 0.531289 0.454180
vt 0.267188 0.580664
vt 0.267188 0.594727
vt 0.066797 0.454102
vt 0.066797 0.464648
vt 0.250977 0.413086
vt 0.250977 0.401602
vt 0.370676 0.905816
vt 0.370676 0.626746
vt 0.393750 0.440039
vt 0.625781 0.440039
vt 0.625781 0.450586
vt 0.393750 0.450586
vt 0.643359 0.440039
vt 0.643359 0.450586
vt 0.218622 0.450461
vt 0.175835 0.450461
vt 0.175835 0.500945
vt 0.218622 0.500945
vt 0.822315 0.951379
vt 0.400292 0.951379
vt 0.829868 0.450461
vt 0.677057 0.450461
vt 0.524245 0.450461
vt 0.799306 0.500945
vt 0.370676 0.951379
vt 0.636328 0.450586
vt 0.636328 0.436523
vt 0.667969 0.436523
vt 0.667969 0.450586
vt 0.636328 0.440039
vt 0.667969 0.440039
vt 0.141055 0.544336
vt 0.250977 0.544336
vt 0.231289 0.554180
vt 0.141055 0.554180
vt 0.825363 0.579233
vt 0.631069 0.503426
vt 0.604918 0.519605
vt 0.750373 0.425614
vt 0.751158 0.458349
vt 0.066797 0.436523
vt 0.066797 0.450586
vt 0.035156 0.450586
vt 0.035156 0.436523
vt 0.258780 0.479825
vt 0.232315 0.463198
vt 0.401445 0.982813
vt 0.092250 0.462169
vt 0.092250 0.485643
vt 0.776563 0.982813
vt 0.207422 0.436523
vt 0.207422 0.450586
vt 0.625781 0.436523
vt 0.390234 0.436523
vt 0.390234 0.450586
vt 0.643359 0.436523
vt 0.521680 0.577148
vt 0.541367 0.572226
vt 0.541367 0.413086
vt 0.823047 0.617617
vt 0.541367 0.401602
vt 0.969081 0.586917
vt 0.969081 0.639063
vt 0.995802 0.639063
vt 0.541367 0.555820
vt 0.453125 0.179688
vt 0.453125 0.203125
vt 0.453125 0.000000
vt 0.278945 0.390391
vt 0.278945 0.358047
vt 0.877305 0.358047
vt 0.877305 0.390391
vt 0.844961 0.390391
vt 0.664453 0.500391
vt 0.311719 0.500391
vt 0.311719 0.483984
vt 0.664453 0.483984
vt 0.836719 0.500391
vt 0.734180 0.500391
vt 0.734180 0.483984
vt 0.750586 0.483984
vt 0.820312 0.483984
vt 0.836719 0.483984
vt 0.278945 0.552109
vt 0.278945 0.527852
vt 0.844961 0.527852
vt 0.877305 0.527852
vt 0.877305 0.552109
vt 0.609375 0.453125
vt 0.796875 0.453125
vt 0.796875 0.492188
vt 0.609375 0.492188
vt 0.276172 0.531953
vt 0.276172 0.393828
vt 0.844922 0.393828
vt 0.844922 0.531953
vt 0.840558 0.459654
vt 0.763245 0.459654
vt 0.763245 0.473298
vt 0.840558 0.473298
vt 0.645002 0.459654
vt 0.276629 0.459654
vt 0.276629 0.477846
vt 0.645002 0.473298
vt 0.261719 0.292969
vt 0.332031 0.066406
vt 0.312500 0.066406
vt 0.195312 0.152344
vt 0.214844 0.152344
vt 0.489648 0.494922
vt 0.247461 0.494922
vt 0.247461 0.446484
vt 0.489648 0.458594
vt 0.805547 0.544688
vt 0.805547 0.561562
vt 0.465347 0.561562
vt 0.096797 0.561562
vt 0.096797 0.544688
vt 0.153497 0.544688
vt 0.748847 0.544688
vt 0.731836 0.494922
vt 0.731836 0.470703
vt 0.308008 0.494922
vt 0.768164 0.494922
vt 0.768164 0.470703
vt 0.719727 0.470703
vt 0.344336 0.470703
vt 0.308008 0.470703
vt 0.308008 0.446484
vt 0.344336 0.446484
vt 0.719727 0.446484
vt 0.768164 0.446484
vt 0.805547 0.375938
vt 0.805547 0.384375
vt 0.748847 0.384375
vt 0.153497 0.384375
vt 0.096797 0.384375
vt 0.096797 0.375938
vt 0.465347 0.375938
vt 0.939844 0.420312
vt 0.189062 0.420312
vt 0.189062 0.492969
vt 0.939844 0.492969
vt 0.305273 0.775781
vt 0.305273 0.939062
vt 0.034570 0.939062
vt 0.034570 0.775781
vt 0.915625 0.444531
vt 0.067969 0.420312
vt 0.067969 0.492969
vt 0.915625 0.517187
vt 0.189062 0.444531
vt 0.939844 0.444531
vt 0.939844 0.517187
vt 0.189062 0.517187
vt 0.490625 0.645703
vt 0.490625 0.656641
vt 0.501562 0.656641
vt 0.501562 0.645703
vt 0.501562 0.714063
vt 0.501562 0.703125
vt 0.490625 0.703125
vt 0.490625 0.714063
s 1
f 5/1/1 3/2/2 23/3/3 4/4/4 93/5/5 110/6/6 109/7/7 95/8/8 6/9/5
f 1/10/9 5/1/1 6/9/5 2/11/10
f 6/9/5 8/12/4 22/13/11 7/14/12 2/11/10
f 36/15/13 26/16/13 79/17/14 80/18/14
f 38/19/15 10/20/16 76/21/17 82/22/18
f 54/23/19 60/24/20 92/25/21 90/26/22
f 3/27/2 5/28/1 9/29/23 14/30/24
f 93/31/5 4/32/4 13/33/25 94/34/26 97/35/27
f 5/36/1 1/27/9 10/37/16 17/38/28 9/39/23
f 2/40/10 7/41/12 114/42/29 115/43/30 15/44/31 11/45/17
f 114/46/29 7/41/12 22/47/11 118/48/32 121/49/33
f 4/28/4 23/50/3 20/51/34 13/29/25
f 1/52/9 2/40/10 11/45/17 19/53/17 10/54/16
f 8/55/4 6/56/5 12/57/35 16/58/36 117/59/37 116/60/38
f 9/61/23 17/62/28 37/63/39 39/64/40
f 13/65/25 20/66/34 49/67/41 52/65/42
f 24/68/13 21/69/41 45/70/43 46/71/44
f 29/67/41 28/65/45 51/65/45 53/67/41
f 34/72/41 36/15/13 47/73/46 48/74/47
f 117/75/37 16/57/36 113/76/48 119/77/49 123/78/27
f 3/32/2 14/79/24 20/51/34 23/50/3
f 33/80/50 27/81/51 28/82/45 29/83/41
f 33/84/50 32/85/41 27/86/51
f 32/87/41 26/16/13 36/15/13 34/72/41
f 27/86/51 32/85/41 34/88/41 35/89/52
f 25/90/13 26/16/13 32/87/41 33/91/50
f 24/68/13 25/90/13 33/91/50 21/69/41
f 21/92/41 33/84/50 31/93/53
f 31/94/53 33/95/50 29/96/41 30/23/19
f 71/97/17 72/98/17 79/99/14 78/100/14
f 58/101/54 57/102/55 67/103/56 68/104/57
f 19/105/17 11/106/17 72/107/17 71/108/17
f 24/68/13 46/71/44 83/109/58 77/110/14
f 39/111/40 37/112/39 45/113/43 40/114/59
f 43/115/60 41/116/61 42/117/62 48/118/47
f 37/112/39 38/119/15 46/120/44 45/113/43
f 44/121/63 43/122/60 48/123/47 47/124/46
f 15/125/31 44/126/63 84/127/64 75/128/17
f 21/92/41 31/93/53 40/129/59 45/130/43
f 35/89/52 34/88/41 48/131/47 42/132/62
f 35/89/52 42/132/62 74/133/65 70/134/66
f 15/135/31 18/136/67 43/137/60 44/138/63
f 17/62/28 10/61/16 38/64/15 37/63/39
f 18/136/67 16/135/36 41/138/61 43/137/60
f 49/139/41 50/140/68 56/141/69 55/142/70
f 54/23/19 53/96/41 59/143/71 60/24/20
f 30/144/19 29/67/41 53/67/41 54/144/19
f 20/66/34 14/144/24 50/144/68 49/67/41
f 14/145/24 30/145/19 54/145/19 50/145/68
f 28/146/45 13/146/25 52/146/42 51/146/45
f 58/101/54 55/147/70 59/148/71 57/102/55
f 55/147/70 56/149/69 60/150/20 59/148/71
f 52/151/42 49/139/41 55/142/70 58/152/54
f 53/83/41 51/82/45 57/153/55 59/154/71
f 61/155/72 62/156/26 63/157/73 64/158/74
f 65/157/73 66/156/26 68/159/57 67/160/56
f 52/161/42 58/162/54 68/163/57 66/164/26
f 28/82/45 27/81/51 64/165/74 63/166/73
f 12/167/35 96/168/26 94/169/26 13/161/25 62/164/26 61/170/72
f 57/153/55 51/82/45 65/166/73 67/171/56
f 80/172/14 75/173/17 84/174/64 81/175/75
f 69/176/76 61/104/72 64/103/74 70/172/66
f 69/176/76 70/172/66 74/175/65 73/177/77
f 16/178/36 12/179/35 61/180/72 69/181/76
f 27/86/51 35/89/52 70/134/66 64/182/74
f 42/117/62 41/116/61 73/183/77 74/184/65
f 41/138/61 16/135/36 69/185/76 73/186/77
f 72/98/17 75/173/17 80/172/14 79/99/14
f 76/187/17 71/97/17 78/100/14 77/188/14
f 76/187/17 77/188/14 83/189/58 82/190/18
f 44/121/63 47/124/46 81/191/75 84/192/64
f 47/73/46 36/15/13 80/18/14 81/193/75
f 11/106/17 15/194/31 75/195/17 72/107/17
f 10/20/16 19/105/17 71/108/17 76/21/17
f 25/90/13 24/68/13 77/110/14 78/196/14
f 46/120/44 38/119/15 82/197/18 83/198/58
f 26/16/13 25/90/13 78/196/14 79/17/14
f 85/199/78 86/200/79 87/201/80 88/157/22
f 89/199/78 90/157/22 92/160/21 91/202/81
f 60/150/20 56/149/69 91/190/81 92/189/21
f 14/140/24 9/203/23 86/204/79 85/205/78
f 31/94/53 30/23/19 88/26/22 87/206/80
f 56/141/69 50/140/68 89/205/78 91/207/81
f 87/208/80 40/209/59 31/210/53
f 86/200/79 39/111/40 40/114/59 87/201/80
f 39/64/40 86/211/79 9/61/23
f 98/212/82 97/35/27 94/34/26 96/213/26
f 6/55/5 95/214/8 98/212/82 96/213/26 12/58/35
f 104/215/83 100/216/4 101/217/84 105/218/49 108/219/85
f 98/220/82 95/221/8 99/222/12 102/223/86
f 97/224/27 98/225/82 102/226/86 106/227/49 105/228/49 101/229/84
f 93/221/5 97/220/27 101/223/84 100/222/4
f 99/230/12 103/231/87 107/232/88 106/233/49 102/234/86
f 107/232/88 108/219/85 105/218/49 106/233/49
f 103/235/87 104/236/83 110/237/6 109/238/7
f 109/239/7 110/240/6 112/241/89 111/242/90
f 108/243/85 107/244/88 111/245/90 112/246/89
f 107/247/88 103/248/87 109/249/7 111/250/90
f 104/248/83 108/247/85 112/250/89 110/249/6
f 18/251/67 15/44/31 113/76/48
f 16/57/36 18/251/67 113/76/48
f 8/56/4 116/252/38 122/253/91 118/48/32 22/47/11
f 15/44/31 115/254/30 120/255/82 119/77/49 113/76/48
f 119/256/49 120/257/82 128/258/86 127/259/49
f 115/254/30 114/46/29 121/49/33 120/255/82
f 116/252/38 117/75/37 123/78/27 122/253/91
f 132/260/37 126/261/84 127/262/49 128/263/86 131/264/30 137/265/91 136/266/33
f 118/256/32 122/267/91 124/268/4 125/259/32
f 122/269/91 123/270/27 126/271/84 132/272/37 133/273/38 124/274/4
f 121/257/33 118/256/32 125/259/32 129/258/12
f 123/267/27 119/256/49 127/259/49 126/268/84
f 120/270/82 121/269/33 129/275/12 130/276/29 131/277/30 128/278/86
f 124/279/4 133/280/38 134/281/82 135/282/27 130/283/29 129/284/12 125/285/32
f 135/282/27 137/265/91 131/264/30 130/283/29
f 133/280/38 132/260/37 136/266/33 134/281/82
f 137/286/91 135/287/27 139/288/84 141/289/4
f 138/290/86 140/291/12 141/292/4 139/293/84
f 136/294/33 137/295/91 141/296/4 140/297/12
f 135/295/27 134/294/82 138/297/86 139/296/84
f 134/298/82 136/299/33 140/300/12 138/301/86
f 95/302/8 109/303/7 103/304/87 99/305/12
f 100/306/4 104/307/83 110/308/6 93/309/5
