# Blender 4.5.4 LTS
# www.blender.org
mtllib arrow.mtl
o arrow_mesh
v -0.671609 -2.740617 0.671609
v -0.671609 -2.740617 -0.671609
v 0.671609 -2.740617 0.671609
v 0.671609 -2.740617 -0.671609
v -0.671609 4.106150 0.671609
v -0.671609 4.106150 -0.671609
v 0.671609 4.106150 0.671609
v 0.671609 4.106150 -0.671609
v 0.671609 -4.665761 0.000000
v -0.671609 -4.665761 0.000000
v 0.671609 -2.740617 1.726300
v -0.671609 -2.740617 1.726300
v -0.671609 -2.740617 -1.726300
v 0.671609 -2.740617 -1.726300
v 0.671609 -3.061443 1.726300
v -0.671609 -3.061443 1.726300
v -0.671609 -3.061443 -1.726300
v 0.671609 -3.061443 -1.726300
vn -1.0000 -0.0000 -0.0000
vn 1.0000 -0.0000 -0.0000
vn -0.0000 1.0000 -0.0000
vn -0.0000 -0.0000 1.0000
vn -0.0000 -0.0000 -1.0000
vn -0.0000 -0.7325 -0.6808
vn -0.0000 -0.7325 0.6808
vt 0.625000 1.000000
vt 0.375000 0.250000
vt 0.625000 0.250000
vt 0.625000 0.500000
vt 0.375000 0.500000
vt 0.625000 0.750000
vt 0.375000 0.750000
vt 0.375000 1.000000
vt 0.125000 0.500000
vt 0.125000 0.750000
vt 0.875000 0.500000
vt 0.875000 0.750000
vt 0.625000 0.000000
vt 0.375000 0.000000
s 0
usemtl material/stone.mat
f 10/1/1 2/1/1 13/1/1 17/1/1
f 3/2/2 4/3/2 8/4/2 7/5/2
f 7/5/3 8/4/3 6/6/3 5/7/3
f 5/7/1 6/6/1 2/1/1 1/8/1
f 3/9/4 7/5/4 5/7/4 1/10/4
f 8/4/5 4/11/5 2/12/5 6/6/5
f 9/2/2 3/2/2 11/2/2 15/2/2
f 4/3/2 3/2/2 9/3/2
f 1/8/1 2/1/1 10/8/1
f 13/12/5 14/11/5 18/11/5 17/12/5
f 11/9/4 12/10/4 16/10/4 15/9/4
f 2/12/3 4/11/3 14/11/3 13/12/3
f 3/9/3 1/10/3 12/10/3 11/9/3
f 1/8/1 10/8/1 16/8/1 12/8/1
f 4/3/2 9/3/2 18/3/2 14/3/2
f 9/3/6 10/13/6 17/13/6 18/3/6
f 10/14/7 9/2/7 15/2/7 16/14/7
