<?xml version="1.0" encoding="UTF-8" standalone="no"?>
<!-- Created with Inkscape (http://www.inkscape.org/) -->

<svg
   width="512"
   height="256"
   viewBox="0 0 512 256"
   version="1.1"
   id="svg1"
   inkscape:export-filename="ui_atlas.png"
   inkscape:export-xdpi="96"
   inkscape:export-ydpi="96"
   inkscape:version="1.4.2 (ebf0e940d0, 2025-05-08)"
   sodipodi:docname="ui_atlas.svg"
   xml:space="preserve"
   xmlns:inkscape="http://www.inkscape.org/namespaces/inkscape"
   xmlns:sodipodi="http://sodipodi.sourceforge.net/DTD/sodipodi-0.dtd"
   xmlns="http://www.w3.org/2000/svg"
   xmlns:svg="http://www.w3.org/2000/svg"><sodipodi:namedview
     id="namedview1"
     pagecolor="#232323"
     bordercolor="#111111"
     borderopacity="1"
     inkscape:showpageshadow="0"
     inkscape:pageopacity="0"
     inkscape:pagecheckerboard="1"
     inkscape:deskcolor="#000000"
     inkscape:document-units="px"
     showgrid="true"
     inkscape:zoom="1.8411456"
     inkscape:cx="241.1542"
     inkscape:cy="51.598309"
     inkscape:window-width="2560"
     inkscape:window-height="1404"
     inkscape:window-x="0"
     inkscape:window-y="0"
     inkscape:window-maximized="1"
     inkscape:current-layer="layer1"><inkscape:grid
       id="grid2"
       units="px"
       originx="0"
       originy="0"
       spacingx="64"
       spacingy="64"
       empcolor="#0099e5"
       empopacity="0.30196078"
       color="#0099e5"
       opacity="0.14901961"
       empspacing="5"
       enabled="true"
       visible="true" /></sodipodi:namedview><defs
     id="defs1"><inkscape:perspective
       sodipodi:type="inkscape:persp3d"
       inkscape:vp_x="-70.885463 : 151.096 : 1"
       inkscape:vp_y="0 : 1236.9766 : 0"
       inkscape:vp_z="562.44658 : 151.096 : 1"
       inkscape:persp3d-origin="245.78056 : 98.318333 : 1"
       id="perspective20" /><marker
       style="overflow:visible"
       id="marker10"
       refX="0"
       refY="0"
       orient="auto-start-reverse"
       inkscape:stockid="Rounded arrow"
       markerWidth="0.5"
       markerHeight="0.5"
       viewBox="0 0 1 1"
       inkscape:isstock="true"
       inkscape:collect="always"
       preserveAspectRatio="xMidYMid"><path
         transform="scale(0.7)"
         d="m -0.21114562,-4.1055728 6.42229122,3.21114561 a 1,1 90 0 1 0,1.78885438 L -0.21114562,4.1055728 A 1.236068,1.236068 31.717474 0 1 -2,3 v -6 a 1.236068,1.236068 148.28253 0 1 1.78885438,-1.1055728 z"
         style="fill:context-stroke;fill-rule:evenodd;stroke:none"
         id="path10" /></marker><marker
       style="overflow:visible"
       id="marker9"
       refX="0"
       refY="0"
       orient="auto-start-reverse"
       inkscape:stockid="Concave triangle arrow"
       markerWidth="0.5"
       markerHeight="0.5"
       viewBox="0 0 1 1"
       inkscape:isstock="true"
       inkscape:collect="always"
       preserveAspectRatio="xMidYMid"><path
         transform="scale(0.7)"
         d="M -2,-4 9,0 -2,4 c 2,-2.33 2,-5.66 0,-8 z"
         style="fill:context-stroke;fill-rule:evenodd;stroke:none"
         id="path7" /></marker><marker
       style="overflow:visible"
       id="ConcaveTriangle"
       refX="0"
       refY="0"
       orient="auto-start-reverse"
       inkscape:stockid="Concave triangle arrow"
       markerWidth="0.5"
       markerHeight="0.5"
       viewBox="0 0 1 1"
       inkscape:isstock="true"
       inkscape:collect="always"
       preserveAspectRatio="xMidYMid"><path
         transform="scale(0.7)"
         d="M -2,-4 9,0 -2,4 c 2,-2.33 2,-5.66 0,-8 z"
         style="fill:context-stroke;fill-rule:evenodd;stroke:none"
         id="path9" /></marker><marker
       style="overflow:visible"
       id="marker6"
       refX="0"
       refY="0"
       orient="auto-start-reverse"
       inkscape:stockid="Concave triangle arrow"
       markerWidth="0.5"
       markerHeight="0.5"
       viewBox="0 0 1 1"
       inkscape:isstock="true"
       inkscape:collect="always"
       preserveAspectRatio="xMidYMid"><path
         transform="scale(0.7)"
         d="M -2,-4 9,0 -2,4 c 2,-2.33 2,-5.66 0,-8 z"
         style="fill:context-stroke;fill-rule:evenodd;stroke:none"
         id="path6" /></marker><marker
       style="overflow:visible"
       id="marker5"
       refX="0"
       refY="0"
       orient="auto-start-reverse"
       inkscape:stockid="Concave triangle arrow"
       markerWidth="0.5"
       markerHeight="0.5"
       viewBox="0 0 1 1"
       inkscape:isstock="true"
       inkscape:collect="always"
       preserveAspectRatio="xMidYMid"><path
         transform="scale(0.7)"
         d="M -2,-4 9,0 -2,4 c 2,-2.33 2,-5.66 0,-8 z"
         style="fill:context-stroke;fill-rule:evenodd;stroke:none"
         id="path5" /></marker><marker
       style="overflow:visible"
       id="RoundedArrow"
       refX="0"
       refY="0"
       orient="auto-start-reverse"
       inkscape:stockid="Rounded arrow"
       markerWidth="0.40000001"
       markerHeight="0.40000001"
       viewBox="0 0 1 1"
       inkscape:isstock="true"
       inkscape:collect="always"
       preserveAspectRatio="xMidYMid"><path
         transform="scale(0.7)"
         d="m -0.21114562,-4.1055728 6.42229122,3.21114561 a 1,1 90 0 1 0,1.78885438 L -0.21114562,4.1055728 A 1.236068,1.236068 31.717474 0 1 -2,3 v -6 a 1.236068,1.236068 148.28253 0 1 1.78885438,-1.1055728 z"
         style="fill:context-stroke;fill-rule:evenodd;stroke:none"
         id="path8" /></marker><marker
       style="overflow:visible"
       id="RoundedArrow-2"
       refX="0"
       refY="0"
       orient="auto-start-reverse"
       inkscape:stockid="Rounded arrow"
       markerWidth="0.40000001"
       markerHeight="0.40000001"
       viewBox="0 0 1 1"
       inkscape:isstock="true"
       inkscape:collect="always"
       preserveAspectRatio="xMidYMid"><path
         transform="scale(0.7)"
         d="m -0.21114562,-4.1055728 6.42229122,3.21114561 a 1,1 90 0 1 0,1.78885438 L -0.21114562,4.1055728 A 1.236068,1.236068 31.717474 0 1 -2,3 v -6 a 1.236068,1.236068 148.28253 0 1 1.78885438,-1.1055728 z"
         style="fill:context-stroke;fill-rule:evenodd;stroke:none"
         id="path8-9" /></marker></defs><g
     inkscape:label="Layer 1"
     inkscape:groupmode="layer"
     id="layer1"><path
       style="fill:none;fill-opacity:1;stroke:#dadada;stroke-width:8;stroke-linecap:butt;stroke-linejoin:miter;stroke-dasharray:none;stroke-opacity:1"
       d="m 8,20 20,20 q 4,4 8,0 L 56,20"
       id="arrow-down"
       sodipodi:nodetypes="cccc" /><path
       style="fill:none;fill-opacity:1;stroke:#dadada;stroke-width:8;stroke-linecap:butt;stroke-linejoin:miter;stroke-dasharray:none;stroke-opacity:1"
       d="M 72,44 92,24 q 4,-4 8,0 l 20,20"
       id="arrow-up"
       sodipodi:nodetypes="cccc" /><path
       style="fill:none;fill-opacity:1;stroke:#dadada;stroke-width:8;stroke-linecap:butt;stroke-linejoin:miter;stroke-dasharray:none;stroke-opacity:1"
       d="m 172,8 -20,20 q -4,4 0,8 l 20,20"
       id="arrow-left"
       sodipodi:nodetypes="cccc" /><path
       style="fill:none;fill-opacity:1;stroke:#dadada;stroke-width:8;stroke-linecap:butt;stroke-linejoin:miter;stroke-dasharray:none;stroke-opacity:1"
       d="m 212,8 20,20 q 4,4 0,8 l -20,20"
       id="arrow-right"
       sodipodi:nodetypes="cccc" /><path
       style="fill:none;stroke:#d9d9d9;stroke-width:5;stroke-linecap:butt;stroke-linejoin:miter;stroke-dasharray:none;stroke-opacity:1;marker-start:url(#ConcaveTriangle);marker-end:url(#marker9)"
       d="M 16,96 H 48"
       id="move-hor" /><path
       style="fill:none;stroke:#d9d9d9;stroke-width:5;stroke-linecap:butt;stroke-linejoin:miter;stroke-dasharray:none;stroke-opacity:1;marker-start:url(#marker6);marker-end:url(#marker5)"
       d="m 32,80 v 32"
       id="move-vert" /><path
       style="fill:none;stroke:#d9d9d9;stroke-width:6;stroke-linejoin:bevel;stroke-miterlimit:3.8;stroke-dasharray:none;stroke-opacity:1;marker-end:url(#RoundedArrow);paint-order:stroke fill markers"
       id="rotate"
       sodipodi:type="arc"
       sodipodi:cx="96"
       sodipodi:cy="96"
       sodipodi:rx="24"
       sodipodi:ry="24"
       sodipodi:start="1.5707963"
       sodipodi:end="3.9269908"
       sodipodi:arc-type="arc"
       d="M 96,120 A 24,24 0 0 1 73.826891,105.1844 24,24 0 0 1 79.029437,79.029438"
       sodipodi:open="true" /><path
       style="fill:none;stroke:#d9d9d9;stroke-width:6;stroke-linejoin:bevel;stroke-miterlimit:3.8;stroke-dasharray:none;stroke-opacity:1;marker-end:url(#RoundedArrow-2);paint-order:stroke fill markers"
       id="rotate-7"
       sodipodi:type="arc"
       sodipodi:cx="-96.000008"
       sodipodi:cy="-95"
       sodipodi:rx="24"
       sodipodi:ry="24"
       sodipodi:start="1.5707963"
       sodipodi:end="3.9269908"
       sodipodi:arc-type="arc"
       d="m -96.000008,-71 a 24,24 0 0 1 -22.173112,-14.815597 24,24 0 0 1 5.20255,-26.154963"
       sodipodi:open="true"
       transform="scale(-1)" /><path
       style="fill:none;stroke:#d9d9d9;stroke-width:3;stroke-linecap:butt;stroke-linejoin:miter;stroke-dasharray:none;stroke-opacity:1;marker-end:url(#marker10)"
       d="M 150.2884,105.60394 172.36886,83.523473"
       id="scale-arrow" /><rect
       style="fill:none;stroke:#d9d9d9;stroke-width:4.22625;stroke-linejoin:bevel;stroke-miterlimit:3.8;stroke-dasharray:16.905, 4.22625, 4.22625, 4.22625, 4.22625, 4.22625;stroke-dashoffset:10.143;stroke-opacity:1;paint-order:stroke fill markers"
       id="rect10"
       width="39.43483"
       height="37.391487"
       x="145.66794"
       y="70.699768"
       ry="0.28890944" /><rect
       style="fill:#d9d9d9;fill-opacity:1;stroke:none;stroke-width:5.27017;stroke-linejoin:bevel;stroke-miterlimit:3.8;stroke-dasharray:5.27017, 10.5403;stroke-dashoffset:0;stroke-opacity:1;paint-order:stroke fill markers"
       id="rect11"
       width="23.471994"
       height="23.471994"
       x="133.88203"
       y="98.532837"
       ry="0.80063331" /><path
       style="fill:#d9d9d9;fill-opacity:1;stroke:none;stroke-width:1.19551px;stroke-linecap:butt;stroke-linejoin:miter;stroke-opacity:1"
       d="m 205.79137,80.805278 c -0.24757,-1.45777 -0.76603,-8.649581 7.59601,-5.481172 13.07953,4.955891 26.99996,9.890079 26.99996,9.890079 1.99952,0.578586 2.60222,2.625476 -4.5e-4,3.857678 -3.44364,1.63035 -4.98302,2.737661 -8.66825,4.332513 -1.84143,0.918145 -3.17179,2.051731 -1.10246,4.475752 1.97187,2.309862 4.17912,3.868952 6.50961,5.914592 2.88394,2.7774 5.09105,4.11097 1.87498,6.67771 -3.87446,3.09218 -6.48119,5.64024 -6.48119,5.64024 -1.12699,0.75402 -3.96926,2.52493 -5.77531,-0.16232 -2.35398,-3.50251 -3.70314,-6.32228 -5.89644,-9.78268 -0.0222,-0.0222 -1.66579,-3.86389 -4.30266,-0.80633 -2.71221,3.14491 -3.33937,4.71767 -4.31185,6.11638 -1.38322,2.49163 -4.09232,2.08011 -4.65623,-0.72162 z"
       id="path1"
       sodipodi:nodetypes="cscscscscscsccc" /><path
       id="rect1"
       style="fill:#50b1f6;fill-opacity:1;stroke:none;stroke-width:3.8;stroke-linejoin:bevel;stroke-miterlimit:3.8;stroke-dasharray:15.2, 3.8, 3.8, 3.8, 3.8, 3.8;stroke-dashoffset:9.12;paint-order:stroke fill markers"
       d="m 36.791101,143.18512 c -1.575651,0 -2.845703,1.2681 -2.845703,2.84375 v 4.98828 H 9.5078981 c -1.9781895,0 -3.5722656,1.59212 -3.5722656,3.57031 v 24.83203 c 0,1.97819 1.5940761,3.57032 3.5722656,3.57032 H 54.099695 c 1.97819,0 3.570313,-1.59213 3.570313,-3.57032 v -24.83203 c 0,-0.10407 -0.005,-0.20683 -0.01367,-0.30859 v -8.25 c 0,-1.57565 -1.268099,-2.84375 -2.84375,-2.84375 z" /><path
       id="rect1-6"
       style="fill:#d9d9d9;fill-opacity:1;stroke:none;stroke-width:3.8;stroke-linejoin:bevel;stroke-miterlimit:3.8;stroke-dasharray:15.2, 3.8, 3.8, 3.8, 3.8, 3.8;stroke-dashoffset:9.12;paint-order:stroke fill markers"
       d="m 356.45117,76.183594 c -1.57565,0 -2.8457,1.2681 -2.8457,2.84375 v 4.988281 h -24.4375 c -1.97819,0 -3.57227,1.592123 -3.57227,3.570313 v 24.832032 c 0,1.97819 1.59408,3.57031 3.57227,3.57031 h 44.5918 c 1.97819,0 3.57031,-1.59212 3.57031,-3.57031 V 87.585938 c 0,-0.10407 -0.005,-0.206834 -0.0137,-0.308594 v -8.25 c 0,-1.57565 -1.2681,-2.84375 -2.84375,-2.84375 z m -7.6978,12.097288 h 4.71972 v 9.210065 h 9.28189 v 4.719723 h -9.28189 v 9.30275 h -4.71972 v -9.30275 h -9.23092 v -4.719723 h 9.23092 z"
       sodipodi:nodetypes="sscssssssscsssccccccccccccc" /><rect
       style="fill:none;fill-opacity:1;stroke:#3df56b;stroke-width:3.71044;stroke-linejoin:bevel;stroke-miterlimit:3.8;stroke-dasharray:none;stroke-dashoffset:8.90505;stroke-opacity:1;paint-order:stroke fill markers"
       id="rect2"
       width="44.673271"
       height="45.48798"
       x="73.855217"
       y="137.85522"
       ry="3.5182285" /><text
       xml:space="preserve"
       style="font-size:32px;line-height:1.25;font-family:sans-serif;word-spacing:0px;fill:#3df56b;fill-opacity:1;stroke-width:1;stroke-dasharray:none"
       x="86.832527"
       y="171.56931"
       id="text3"><tspan
         sodipodi:role="line"
         id="tspan3"
         x="86.832527"
         y="171.56931"
         style="font-style:normal;font-variant:normal;font-weight:bold;font-stretch:normal;font-size:32px;font-family:'Liberation Mono';-inkscape-font-specification:'Liberation Mono Bold';fill:#3df56b;fill-opacity:1">T</tspan></text><rect
       style="fill:none;fill-opacity:1;stroke:#f58f3d;stroke-width:3.71044;stroke-linejoin:bevel;stroke-miterlimit:3.8;stroke-dasharray:none;stroke-dashoffset:8.90505;stroke-opacity:1;paint-order:stroke fill markers"
       id="rect2-7"
       width="44.673271"
       height="45.48798"
       x="137.85522"
       y="137.85522"
       ry="3.5182285" /><text
       xml:space="preserve"
       style="font-size:32px;line-height:1.25;font-family:sans-serif;word-spacing:0px;fill:#f5903d;fill-opacity:1;stroke-width:1;stroke-dasharray:none"
       x="150.35246"
       y="170.84428"
       id="text3-0"><tspan
         sodipodi:role="line"
         id="tspan3-9"
         x="150.35246"
         y="170.84428"
         style="font-style:normal;font-variant:normal;font-weight:bold;font-stretch:normal;font-size:32px;font-family:'Liberation Mono';-inkscape-font-specification:'Liberation Mono Bold';fill:#f5903d;fill-opacity:1">M</tspan></text><rect
       style="fill:none;fill-opacity:1;stroke:#3d99f5;stroke-width:3.71044;stroke-linejoin:bevel;stroke-miterlimit:3.8;stroke-dasharray:none;stroke-dashoffset:8.90505;stroke-opacity:1;paint-order:stroke fill markers"
       id="rect2-7-2"
       width="44.673271"
       height="45.48798"
       x="201.85522"
       y="137.85522"
       ry="3.5182285" /><text
       xml:space="preserve"
       style="font-size:32px;line-height:1.25;font-family:sans-serif;word-spacing:0px;fill:#3d99f5;fill-opacity:1;stroke-width:1;stroke-dasharray:none"
       x="214.35246"
       y="170.84428"
       id="text3-0-6"><tspan
         sodipodi:role="line"
         id="tspan3-9-1"
         x="214.35246"
         y="170.84428"
         style="font-style:normal;font-variant:normal;font-weight:bold;font-stretch:normal;font-size:32px;font-family:'Liberation Mono';-inkscape-font-specification:'Liberation Mono Bold';fill:#3d99f5;fill-opacity:1">S</tspan></text><rect
       style="fill:none;fill-opacity:1;stroke:#ab3df5;stroke-width:3.71044;stroke-linejoin:bevel;stroke-miterlimit:3.8;stroke-dasharray:none;stroke-dashoffset:8.90505;stroke-opacity:1;paint-order:stroke fill markers"
       id="rect2-7-0"
       width="44.673271"
       height="45.48798"
       x="9.8552198"
       y="201.85522"
       ry="3.5182285" /><text
       xml:space="preserve"
       style="font-size:32px;line-height:1.25;font-family:sans-serif;word-spacing:0px;fill:#aa3df5;fill-opacity:1;stroke-width:1;stroke-dasharray:none"
       x="22.352467"
       y="234.84428"
       id="text3-0-2"><tspan
         sodipodi:role="line"
         id="tspan3-9-3"
         x="22.352467"
         y="234.84428"
         style="font-style:normal;font-variant:normal;font-weight:bold;font-stretch:normal;font-size:32px;font-family:'Liberation Mono';-inkscape-font-specification:'Liberation Mono Bold';fill:#aa3df5;fill-opacity:1">M</tspan></text><rect
       style="fill:none;fill-opacity:1;stroke:#c9f53d;stroke-width:3.71044;stroke-linejoin:bevel;stroke-miterlimit:3.8;stroke-dasharray:none;stroke-dashoffset:8.90505;stroke-opacity:1;paint-order:stroke fill markers"
       id="rect2-7-0-2"
       width="44.673271"
       height="45.48798"
       x="73.855217"
       y="201.85522"
       ry="3.5182285" /><text
       xml:space="preserve"
       style="font-size:32px;line-height:1.25;font-family:sans-serif;word-spacing:0px;fill:#caf53d;fill-opacity:1;stroke-width:1;stroke-dasharray:none"
       x="86.352463"
       y="234.84428"
       id="text3-0-2-8"><tspan
         sodipodi:role="line"
         id="tspan3-9-3-9"
         x="86.352463"
         y="234.84428"
         style="font-style:normal;font-variant:normal;font-weight:bold;font-stretch:normal;font-size:32px;font-family:'Liberation Mono';-inkscape-font-specification:'Liberation Mono Bold';fill:#caf53d;fill-opacity:1">F</tspan></text><rect
       style="fill:none;fill-opacity:1;stroke:#3df5e0;stroke-width:3.71044;stroke-linejoin:bevel;stroke-miterlimit:3.8;stroke-dasharray:none;stroke-dashoffset:8.90505;stroke-opacity:1;paint-order:stroke fill markers"
       id="rect2-7-0-2-2"
       width="44.673271"
       height="45.48798"
       x="137.85522"
       y="201.85522"
       ry="3.5182285" /><text
       xml:space="preserve"
       style="font-size:32px;line-height:1.25;font-family:sans-serif;word-spacing:0px;fill:#3df5e0;fill-opacity:1;stroke-width:1;stroke-dasharray:none"
       x="150.35248"
       y="234.84428"
       id="text3-0-2-8-9"><tspan
         sodipodi:role="line"
         id="tspan3-9-3-9-3"
         x="150.35248"
         y="234.84428"
         style="font-style:normal;font-variant:normal;font-weight:bold;font-stretch:normal;font-size:32px;font-family:'Liberation Mono';-inkscape-font-specification:'Liberation Mono Bold';fill:#3df5e0;fill-opacity:1">L</tspan></text><rect
       style="fill:none;fill-opacity:1;stroke:#d9d9d9;stroke-width:3.71044;stroke-linejoin:bevel;stroke-miterlimit:3.8;stroke-dasharray:none;stroke-dashoffset:8.90505;stroke-opacity:1;paint-order:stroke fill markers"
       id="rect2-7-0-2-2-8"
       width="44.673271"
       height="45.48798"
       x="201.85522"
       y="201.85522"
       ry="3.5182285" /><text
       xml:space="preserve"
       style="font-size:32px;line-height:1.25;font-family:sans-serif;word-spacing:0px;fill:#d9d9d9;fill-opacity:1;stroke-width:1;stroke-dasharray:none"
       x="214.35248"
       y="234.8443"
       id="text3-0-2-8-9-4"><tspan
         sodipodi:role="line"
         id="tspan3-9-3-9-3-5"
         x="214.35248"
         y="234.8443"
         style="font-style:normal;font-variant:normal;font-weight:bold;font-stretch:normal;font-size:32px;font-family:'Liberation Mono';-inkscape-font-specification:'Liberation Mono Bold';fill:#d9d9d9;fill-opacity:1">?</tspan></text><circle
       style="fill:none;stroke:#d9d9d9;stroke-width:5;stroke-linejoin:bevel;stroke-miterlimit:3.8;stroke-dasharray:none;stroke-dashoffset:9.12;paint-order:stroke fill markers"
       id="path2"
       cx="288.09363"
       cy="32.461739"
       r="20.833576" /><path
       style="fill:none;stroke:#d9d9d9;stroke-width:4;stroke-linecap:butt;stroke-linejoin:miter;stroke-dasharray:none;stroke-opacity:1"
       d="m 259.64826,33.045292 h 15.54721"
       id="path3" /><path
       style="fill:none;stroke:#d9d9d9;stroke-width:4;stroke-linecap:butt;stroke-linejoin:miter;stroke-dasharray:none;stroke-opacity:1"
       d="m 301.40874,33.286611 h 14.5226"
       id="path3-36" /><path
       style="fill:none;stroke:#d9d9d9;stroke-width:4;stroke-linecap:butt;stroke-linejoin:miter;stroke-dasharray:none;stroke-opacity:1"
       d="M 287.84484,4.2283049 V 20.472495"
       id="path3-3" /><path
       style="fill:none;stroke:#d9d9d9;stroke-width:4;stroke-linecap:butt;stroke-linejoin:miter;stroke-dasharray:none;stroke-opacity:1"
       d="M 288.15666,45.101059 V 61.516017"
       id="path3-3-1" /><ellipse
       style="fill:#d9d9d9;fill-opacity:1;stroke:none;stroke-width:18.6033;stroke-linejoin:bevel;stroke-miterlimit:3.8;stroke-dasharray:none;stroke-dashoffset:9.12;stroke-opacity:1;paint-order:stroke fill markers"
       id="path4"
       cx="287.7757"
       cy="32.698864"
       rx="5.4416461"
       ry="5.3591514" /><path
       style="fill:#d9d9d9;fill-opacity:1;stroke:none;stroke-width:0.88258px;stroke-linecap:butt;stroke-linejoin:miter;stroke-opacity:1"
       d="m 264.73323,83.230069 h 11.01728 v 15.221782 c 0.59533,14.903379 24.53361,13.606989 24.95047,1.016894 V 82.721626 l 10.80902,0 V 100.6551 c -3.31335,24.85952 -44.00961,24.31055 -46.94625,-1.016875 z"
       id="path11"
       sodipodi:nodetypes="ccccccccc" /><rect
       style="fill:none;fill-opacity:1;stroke:#d9d9d9;stroke-width:2.14735;stroke-linejoin:bevel;stroke-miterlimit:3.8;stroke-dasharray:none;stroke-dashoffset:9.12;stroke-opacity:1;paint-order:stroke fill markers"
       id="rect12"
       width="8.875577"
       height="14.014317"
       x="265.80045"
       y="70.739532" /><rect
       style="fill:none;fill-opacity:1;stroke:#d9d9d9;stroke-width:2.02869;stroke-linejoin:bevel;stroke-miterlimit:3.8;stroke-dasharray:none;stroke-dashoffset:9.12;stroke-opacity:1;paint-order:stroke fill markers"
       id="rect12-1"
       width="8.7094698"
       height="12.746954"
       x="301.78857"
       y="71.081215" /><path
       style="fill:#d9d9d9;fill-opacity:1;stroke:none;stroke-width:1.19186px;stroke-linecap:butt;stroke-linejoin:miter;stroke-opacity:1"
       d="m 271.1006,175.47891 c 0.62129,1.2534 3.01378,9.5921 12.78505,5.90701 9.95759,-3.75534 12.46138,-10.3575 12.46138,-10.3575 0,0 3.07489,-10.03384 0,-11.08577 -3.07488,-1.05193 -7.35553,-1.96262 -13.75606,0.64734 -5.44955,2.22217 -9.38503,3.86633 -11.00487,8.17272 -1.65882,4.41003 -0.4855,6.7162 -0.4855,6.7162 z"
       id="path12"
       sodipodi:nodetypes="cscsssc" /><path
       style="fill:#d9d9d9;fill-opacity:1;stroke:none;stroke-width:1.19186px;stroke-linecap:butt;stroke-linejoin:miter;stroke-opacity:1"
       d="m 277.80302,180.2733 c 0,0 -3.44547,0.2023 -3.36455,2.28595 0.0809,2.08363 2.16455,2.44776 2.16455,2.44776 0,0 11.00589,-0.0828 12.48161,-0.14161 1.14703,-0.0456 3.9327,-0.27163 2.24548,-2.10386 -1.4082,-1.52923 -4.85732,-2.02233 -7.44446,-2.36686 -1.93947,-0.17258 -3.84857,-0.39069 -6.08263,-0.12138 z"
       id="path13"
       sodipodi:nodetypes="cscsscc" /><path
       style="fill:#d9d9d9;fill-opacity:1;stroke:none;stroke-width:1.19186px;stroke-linecap:butt;stroke-linejoin:miter;stroke-opacity:1"
       d="m 290.85611,174.46049 c 0,0.40459 4.11531,10.08124 6.21919,10.64767 2.10386,0.56643 8.0918,-0.16184 8.0918,-0.16184 0,0 2.40867,-3.98027 -0.77398,-4.23634 -3.362,-0.27052 -4.29269,2.51961 -5.82694,0.58929 -1.54119,-1.93906 -2.12673,-10.64193 -2.12673,-10.64193 z"
       id="path14"
       sodipodi:nodetypes="cscsscc" /><path
       style="fill:#d9d9d9;fill-opacity:1;stroke:none;stroke-width:1.19186px;stroke-linecap:butt;stroke-linejoin:miter;stroke-opacity:1"
       d="m 274.49916,173.69872 c 0.81037,2.34304 1.0633,7.85636 -3.19627,5.74517 -4.90941,-2.43327 -4.91938,-9.19694 -2.2657,-9.50787 2.13963,-0.25071 4.13192,0.76447 5.46197,3.7627 z"
       id="path15"
       sodipodi:nodetypes="cssc" /><path
       style="fill:#d9d9d9;fill-opacity:1;stroke:none;stroke-width:1.19186px;stroke-linecap:butt;stroke-linejoin:miter;stroke-opacity:1"
       d="m 290.81483,159.79034 c 0,0 6.87642,3.06949 10.9858,0 3.67423,-2.74446 3.37599,-3.8349 3.73143,-4.32856 0.43112,0.0795 1.54978,-1.84421 -0.013,-2.20812 -0.71913,-0.16746 -2.14937,-1.04093 -3.79581,-2.56297 -2.14372,-1.98173 -1.522,-2.40459 -3.9278,-4.0032 -2.68401,-1.78348 -5.37846,-1.83097 -8.12491,0.11442 -2.74645,1.94539 -2.5748,8.69708 -2.5748,8.69708 0.45981,2.7953 2.06301,3.58965 3.71915,4.29133 z"
       id="path16"
       sodipodi:nodetypes="cscssssccc" /><path
       style="fill:#d9d9d9;fill-opacity:1;stroke:none;stroke-width:1.19186px;stroke-linecap:butt;stroke-linejoin:miter;stroke-opacity:1"
       d="m 292.30113,147.40035 c 0,0 -2.38708,-6.75666 -4.61234,-9.26511 -2.22524,-2.50847 -3.39855,-5.50243 -5.30013,-6.31162 -1.90157,-0.80917 -3.11534,-0.72826 -3.27717,1.17331 -0.16185,1.90158 1.41606,6.14977 2.468,7.64676 1.05193,1.49699 7.52537,10.11476 7.52537,10.11476 z"
       id="path17" /><path
       style="fill:#d9d9d9;fill-opacity:1;stroke:none;stroke-width:1.19186px;stroke-linecap:butt;stroke-linejoin:miter;stroke-opacity:1"
       d="m 285.0185,143.15215 c -3.1754,-3.27479 -5.12069,-5.29598 -6.7162,-6.23069 -1.30452,-0.76424 -2.11915,-1.97062 -4.16727,-0.60688 -1.61662,1.07644 -0.47193,4.70539 2.34662,7.88951 1.18286,1.33631 5.86916,4.93482 8.05135,5.86656 2.51092,1.0721 4.59894,2.71144 4.57186,2.54893 l 1.69929,-1.90158 z"
       id="path18"
       sodipodi:nodetypes="cssssccc" /><path
       id="path20"
       style="fill:#d9d9d9;stroke-width:0.862065;stroke-linejoin:bevel;stroke-miterlimit:3.8;stroke-dashoffset:9.12;paint-order:stroke fill markers"
       d="m 288.27218,204.27437 v 26.2187 0.58601 h 0.0312 a 14.48908,8.9547448 0 0 0 14.45903,8.37037 14.48908,8.9547448 0 0 0 14.45697,-8.37037 h 0.0249 v -0.30755 a 14.48908,8.9547448 0 0 0 0.006,-0.27846 14.48908,8.9547448 0 0 0 -0.006,-0.27637 v -25.94233 h -0.43223 a 14.071055,7.391151 0 0 1 -14.07045,7.3168 14.071055,7.391151 0 0 1 -14.07044,-7.3168 z" /><ellipse
       style="fill:none;fill-opacity:1;stroke:#d9d9d9;stroke-width:0.772527;stroke-linejoin:bevel;stroke-miterlimit:3.8;stroke-dashoffset:9.12;stroke-opacity:1;paint-order:stroke fill markers"
       id="path20-3-1"
       cx="302.75983"
       cy="204.33136"
       rx="14.097786"
       ry="7.3907938" /><g
       id="g20"
       style="fill:#d9d9d9;fill-opacity:1;stroke-linejoin:bevel;stroke-miterlimit:3.8;stroke-dashoffset:9.12;paint-order:stroke fill markers"
       transform="matrix(1.0639593,0,0,1.0639593,-8.7616232,-24.115057)"><path
         id="path33"
         style="fill:#d9d9d9;fill-opacity:1;fill-rule:evenodd;stroke:none;stroke-width:1.14065;stroke-linejoin:round"
         d="m 281.0197,230.2107 -14.18946,6.33203 -14.23047,-5.19336 v 21.00781 l 14.23047,6.08594 v -12.88867 l 0.0879,-0.043 14.10157,5.50781 z" /><path
         d="m 252.59985,252.35628 14.23094,6.0878 14.18923,-7.42407 -14.10148,-5.50768 z"
         style="fill:#d9d9d9;fill-opacity:1;fill-rule:evenodd;stroke:none;stroke-linejoin:round"
         id="path35" /><path
         d="m 253.12694,231.21736 13.69164,4.99654 13.65153,-6.09328 -13.5671,-4.52042 z"
         style="fill:none;fill-opacity:1;fill-rule:evenodd;stroke:#d9d9d9;stroke-width:1.09742;stroke-linejoin:round;stroke-miterlimit:3.8;stroke-dashoffset:9.12;stroke-opacity:1;paint-order:stroke fill markers"
         id="path36-6" /><path
         d="m 266.83079,236.54334 v 21.90074 l 14.18923,-7.42407 v -20.80995 z"
         style="fill:#d9d9d9;fill-opacity:1;fill-rule:evenodd;stroke:none;stroke-linejoin:round"
         id="path37" /></g><path
       id="rect3"
       style="fill:#d9d9d9;stroke-width:0.73236;stroke-linejoin:bevel;stroke-miterlimit:3.8;stroke-dashoffset:9.12;paint-order:stroke fill markers"
       d="M 346.69153,9.9213662 V 28.112693 h -18.23546 v 9.322271 h 18.23546 v 18.378044 h 9.32227 V 37.434964 h 18.33391 V 28.112693 H 356.0138 V 9.9213662 Z" /><path
       id="path19"
       style="fill:#d9d9d9;fill-opacity:1;stroke:none;stroke-width:1.22048px;stroke-linecap:butt;stroke-linejoin:miter;stroke-opacity:1"
       d="m 332.91406,149.05691 c 2.67534,12.73818 5.35005,25.47667 8.02539,38.21484 8.35057,-0.0125 16.64639,0.0481 25.00391,0.0273 2.67534,-12.73907 5.35004,-25.47967 8.02539,-38.21874 -13.70056,0.0126 -27.34909,-0.0421 -41.05469,-0.0234 z m 21.91211,6.96874 0.19336,26.67968 c -0.028,0.014 -1.24522,1.97025 -2.9375,0.082 l -1.00976,-26.76171 c 0,0 0.44157,-1.39867 1.93179,-1.41609 1.6311,0.0417 1.81993,1.41176 1.82211,1.41612 z m 11.07299,-1.23424 c 0.40091,0.0677 1.0169,0.31788 1.00123,1.2049 -0.0439,2.48306 -5.29707,26.92866 -5.29707,26.92866 0.0293,0.0106 -1.27067,1.57867 -2.45293,-0.083 l 4.81301,-27.05582 c -0.0302,-0.0302 0.36728,-1.3656 1.47369,-1.07279 z m -25.10089,0.23281 c 0.43009,-0.0787 1.82095,0.21423 1.93731,0.97739 l 4.59115,26.6584 c 0.26667,1.54842 -2.27869,1.14109 -2.41657,0.16833 0,0 -5.48901,-24.06647 -5.53711,-26.64062 -0.0165,-0.88487 0.99185,-1.1563 1.42522,-1.1635 z"
       sodipodi:nodetypes="cccccccccccssccccsccsssc" /><path
       id="path21"
       style="fill:#d9d9d9;fill-opacity:1;stroke:none;stroke-width:1.1062px;stroke-linecap:butt;stroke-linejoin:miter;stroke-opacity:1"
       d="m 337.20317,140.59149 c -5.2393,0 -4.61475,5.55473 -4.61475,5.55473 h 20.12316 v 0.002 h 21.19176 c 0,0 0.62456,-5.55472 -4.61475,-5.55472 h -15.35278 v -0.002 z" /><path
       id="path22"
       style="fill:none;stroke:#d9d9d9;stroke-width:2.1031;stroke-linecap:butt;stroke-linejoin:miter;stroke-dasharray:none;stroke-opacity:1"
       d="m 346.64254,134.59275 c -3.24573,-0.10835 -2.78669,4.15411 -2.78669,4.15411 v 3.21414 l 8.82489,1.8074 8.84773,-1.79495 v -3.21414 c 0,0 0.45903,-4.26246 -2.78671,-4.15411 -0.1981,0.007 -0.60944,-9.2e-4 -0.84037,0.004 l 0.0312,-0.0166 c 0,0 -3.48419,0.0465 -6.79141,0.0477 -1.71829,6.2e-4 -3.38881,-0.0107 -4.49856,-0.0477 z"
       sodipodi:nodetypes="scccccsccsss" /></g></svg>
