<?xml version="1.0" encoding="UTF-8" standalone="no"?>
<!-- Created with Inkscape (http://www.inkscape.org/) -->

<svg
   width="512"
   height="256"
   viewBox="0 0 512 256"
   version="1.1"
   id="svg1"
   inkscape:export-filename="ui_atlas.png"
   inkscape:export-xdpi="96"
   inkscape:export-ydpi="96"
   inkscape:version="1.4.2 (ebf0e940d0, 2025-05-08)"
   sodipodi:docname="ui_atlas.svg"
   xml:space="preserve"
   xmlns:inkscape="http://www.inkscape.org/namespaces/inkscape"
   xmlns:sodipodi="http://sodipodi.sourceforge.net/DTD/sodipodi-0.dtd"
   xmlns="http://www.w3.org/2000/svg"
   xmlns:svg="http://www.w3.org/2000/svg"><sodipodi:namedview
     id="namedview1"
     pagecolor="#232323"
     bordercolor="#111111"
     borderopacity="1"
     inkscape:showpageshadow="0"
     inkscape:pageopacity="0"
     inkscape:pagecheckerboard="1"
     inkscape:deskcolor="#000000"
     inkscape:document-units="px"
     showgrid="true"
     inkscape:zoom="2.603773"
     inkscape:cx="305.71021"
     inkscape:cy="104.84785"
     inkscape:window-width="1251"
     inkscape:window-height="1360"
     inkscape:window-x="0"
     inkscape:window-y="0"
     inkscape:window-maximized="1"
     inkscape:current-layer="layer1"><inkscape:grid
       id="grid2"
       units="px"
       originx="0"
       originy="0"
       spacingx="64"
       spacingy="64"
       empcolor="#0099e5"
       empopacity="0.30196078"
       color="#0099e5"
       opacity="0.14901961"
       empspacing="5"
       enabled="true"
       visible="true" /></sodipodi:namedview><defs
     id="defs1"><inkscape:path-effect
       effect="fillet_chamfer"
       id="path-effect23"
       is_visible="true"
       lpeversion="1"
       nodesatellites_param="F,0,0,1,0,0,0,1 @ F,0,0,1,0,4,0,1 @ F,0,0,1,0,4,0,1 @ F,0,0,1,0,0.063404913,0,1"
       radius="4"
       unit="px"
       method="auto"
       mode="F"
       chamfer_steps="1"
       flexible="false"
       use_knot_distance="true"
       apply_no_radius="true"
       apply_with_radius="true"
       only_selected="false"
       hide_knots="false" /><inkscape:perspective
       sodipodi:type="inkscape:persp3d"
       inkscape:vp_x="-70.885463 : 151.096 : 1"
       inkscape:vp_y="0 : 1236.9766 : 0"
       inkscape:vp_z="562.44658 : 151.096 : 1"
       inkscape:persp3d-origin="245.78056 : 98.318333 : 1"
       id="perspective20" /><marker
       style="overflow:visible"
       id="marker10"
       refX="0"
       refY="0"
       orient="auto-start-reverse"
       inkscape:stockid="Rounded arrow"
       markerWidth="0.5"
       markerHeight="0.5"
       viewBox="0 0 1 1"
       inkscape:isstock="true"
       inkscape:collect="always"
       preserveAspectRatio="xMidYMid"><path
         transform="scale(0.7)"
         d="m -0.21114562,-4.1055728 6.42229122,3.21114561 a 1,1 90 0 1 0,1.78885438 L -0.21114562,4.1055728 A 1.236068,1.236068 31.717474 0 1 -2,3 v -6 a 1.236068,1.236068 148.28253 0 1 1.78885438,-1.1055728 z"
         style="fill:context-stroke;fill-rule:evenodd;stroke:none"
         id="path10" /></marker><marker
       style="overflow:visible"
       id="marker9"
       refX="0"
       refY="0"
       orient="auto-start-reverse"
       inkscape:stockid="Concave triangle arrow"
       markerWidth="0.5"
       markerHeight="0.5"
       viewBox="0 0 1 1"
       inkscape:isstock="true"
       inkscape:collect="always"
       preserveAspectRatio="xMidYMid"><path
         transform="scale(0.7)"
         d="M -2,-4 9,0 -2,4 c 2,-2.33 2,-5.66 0,-8 z"
         style="fill:context-stroke;fill-rule:evenodd;stroke:none"
         id="path7" /></marker><marker
       style="overflow:visible"
       id="ConcaveTriangle"
       refX="0"
       refY="0"
       orient="auto-start-reverse"
       inkscape:stockid="Concave triangle arrow"
       markerWidth="0.5"
       markerHeight="0.5"
       viewBox="0 0 1 1"
       inkscape:isstock="true"
       inkscape:collect="always"
       preserveAspectRatio="xMidYMid"><path
         transform="scale(0.7)"
         d="M -2,-4 9,0 -2,4 c 2,-2.33 2,-5.66 0,-8 z"
         style="fill:context-stroke;fill-rule:evenodd;stroke:none"
         id="path9" /></marker><marker
       style="overflow:visible"
       id="marker6"
       refX="0"
       refY="0"
       orient="auto-start-reverse"
       inkscape:stockid="Concave triangle arrow"
       markerWidth="0.5"
       markerHeight="0.5"
       viewBox="0 0 1 1"
       inkscape:isstock="true"
       inkscape:collect="always"
       preserveAspectRatio="xMidYMid"><path
         transform="scale(0.7)"
         d="M -2,-4 9,0 -2,4 c 2,-2.33 2,-5.66 0,-8 z"
         style="fill:context-stroke;fill-rule:evenodd;stroke:none"
         id="path6" /></marker><marker
       style="overflow:visible"
       id="marker5"
       refX="0"
       refY="0"
       orient="auto-start-reverse"
       inkscape:stockid="Concave triangle arrow"
       markerWidth="0.5"
       markerHeight="0.5"
       viewBox="0 0 1 1"
       inkscape:isstock="true"
       inkscape:collect="always"
       preserveAspectRatio="xMidYMid"><path
         transform="scale(0.7)"
         d="M -2,-4 9,0 -2,4 c 2,-2.33 2,-5.66 0,-8 z"
         style="fill:context-stroke;fill-rule:evenodd;stroke:none"
         id="path5" /></marker><marker
       style="overflow:visible"
       id="RoundedArrow"
       refX="0"
       refY="0"
       orient="auto-start-reverse"
       inkscape:stockid="Rounded arrow"
       markerWidth="0.40000001"
       markerHeight="0.40000001"
       viewBox="0 0 1 1"
       inkscape:isstock="true"
       inkscape:collect="always"
       preserveAspectRatio="xMidYMid"><path
         transform="scale(0.7)"
         d="m -0.21114562,-4.1055728 6.42229122,3.21114561 a 1,1 90 0 1 0,1.78885438 L -0.21114562,4.1055728 A 1.236068,1.236068 31.717474 0 1 -2,3 v -6 a 1.236068,1.236068 148.28253 0 1 1.78885438,-1.1055728 z"
         style="fill:context-stroke;fill-rule:evenodd;stroke:none"
         id="path8" /></marker><marker
       style="overflow:visible"
       id="RoundedArrow-2"
       refX="0"
       refY="0"
       orient="auto-start-reverse"
       inkscape:stockid="Rounded arrow"
       markerWidth="0.40000001"
       markerHeight="0.40000001"
       viewBox="0 0 1 1"
       inkscape:isstock="true"
       inkscape:collect="always"
       preserveAspectRatio="xMidYMid"><path
         transform="scale(0.7)"
         d="m -0.21114562,-4.1055728 6.42229122,3.21114561 a 1,1 90 0 1 0,1.78885438 L -0.21114562,4.1055728 A 1.236068,1.236068 31.717474 0 1 -2,3 v -6 a 1.236068,1.236068 148.28253 0 1 1.78885438,-1.1055728 z"
         style="fill:context-stroke;fill-rule:evenodd;stroke:none"
         id="path8-9" /></marker></defs><g
     inkscape:label="Layer 1"
     inkscape:groupmode="layer"
     id="layer1"><path
       style="fill:none;fill-opacity:1;stroke:#dadada;stroke-width:8;stroke-linecap:butt;stroke-linejoin:miter;stroke-dasharray:none;stroke-opacity:1"
       d="m 8,20 20,20 q 4,4 8,0 L 56,20"
       id="arrow-down"
       sodipodi:nodetypes="cccc" /><path
       style="fill:none;fill-opacity:1;stroke:#dadada;stroke-width:8;stroke-linecap:butt;stroke-linejoin:miter;stroke-dasharray:none;stroke-opacity:1"
       d="M 72,44 92,24 q 4,-4 8,0 l 20,20"
       id="arrow-up"
       sodipodi:nodetypes="cccc" /><path
       style="fill:none;fill-opacity:1;stroke:#dadada;stroke-width:8;stroke-linecap:butt;stroke-linejoin:miter;stroke-dasharray:none;stroke-opacity:1"
       d="m 172,8 -20,20 q -4,4 0,8 l 20,20"
       id="arrow-left"
       sodipodi:nodetypes="cccc" /><path
       style="fill:none;fill-opacity:1;stroke:#dadada;stroke-width:8;stroke-linecap:butt;stroke-linejoin:miter;stroke-dasharray:none;stroke-opacity:1"
       d="m 212,8 20,20 q 4,4 0,8 l -20,20"
       id="arrow-right"
       sodipodi:nodetypes="cccc" /><path
       style="fill:none;stroke:#d9d9d9;stroke-width:5;stroke-linecap:butt;stroke-linejoin:miter;stroke-dasharray:none;stroke-opacity:1;marker-start:url(#ConcaveTriangle);marker-end:url(#marker9)"
       d="M 16,96 H 48"
       id="move-hor" /><path
       style="fill:none;stroke:#d9d9d9;stroke-width:5;stroke-linecap:butt;stroke-linejoin:miter;stroke-dasharray:none;stroke-opacity:1;marker-start:url(#marker6);marker-end:url(#marker5)"
       d="m 32,80 v 32"
       id="move-vert" /><path
       style="fill:none;stroke:#d9d9d9;stroke-width:6;stroke-linejoin:bevel;stroke-miterlimit:3.8;stroke-dasharray:none;stroke-opacity:1;marker-end:url(#RoundedArrow);paint-order:stroke fill markers"
       id="rotate"
       sodipodi:type="arc"
       sodipodi:cx="96"
       sodipodi:cy="96"
       sodipodi:rx="24"
       sodipodi:ry="24"
       sodipodi:start="1.5707963"
       sodipodi:end="3.9269908"
       sodipodi:arc-type="arc"
       d="M 96,120 A 24,24 0 0 1 73.826891,105.1844 24,24 0 0 1 79.029437,79.029438"
       sodipodi:open="true" /><path
       style="fill:none;stroke:#d9d9d9;stroke-width:6;stroke-linejoin:bevel;stroke-miterlimit:3.8;stroke-dasharray:none;stroke-opacity:1;marker-end:url(#RoundedArrow-2);paint-order:stroke fill markers"
       id="rotate-7"
       sodipodi:type="arc"
       sodipodi:cx="-96.000008"
       sodipodi:cy="-95"
       sodipodi:rx="24"
       sodipodi:ry="24"
       sodipodi:start="1.5707963"
       sodipodi:end="3.9269908"
       sodipodi:arc-type="arc"
       d="m -96.000008,-71 a 24,24 0 0 1 -22.173112,-14.815597 24,24 0 0 1 5.20255,-26.154963"
       sodipodi:open="true"
       transform="scale(-1)" /><path
       style="fill:none;stroke:#d9d9d9;stroke-width:3;stroke-linecap:butt;stroke-linejoin:miter;stroke-dasharray:none;stroke-opacity:1;marker-end:url(#marker10)"
       d="M 150.2884,105.60394 172.36886,83.523473"
       id="scale-arrow" /><rect
       style="fill:none;stroke:#d9d9d9;stroke-width:4.22625;stroke-linejoin:bevel;stroke-miterlimit:3.8;stroke-dasharray:16.905, 4.22625, 4.22625, 4.22625, 4.22625, 4.22625;stroke-dashoffset:10.143;stroke-opacity:1;paint-order:stroke fill markers"
       id="rect10"
       width="39.43483"
       height="37.391487"
       x="145.66794"
       y="70.699768"
       ry="0.28890944" /><rect
       style="fill:#d9d9d9;fill-opacity:1;stroke:none;stroke-width:5.27017;stroke-linejoin:bevel;stroke-miterlimit:3.8;stroke-dasharray:5.27017, 10.5403;stroke-dashoffset:0;stroke-opacity:1;paint-order:stroke fill markers"
       id="rect11"
       width="23.471994"
       height="23.471994"
       x="133.88203"
       y="98.532837"
       ry="0.80063331" /><path
       style="fill:#d9d9d9;fill-opacity:1;stroke:none;stroke-width:1.19551px;stroke-linecap:butt;stroke-linejoin:miter;stroke-opacity:1"
       d="m 205.79137,80.805278 c -0.24757,-1.45777 -0.76603,-8.649581 7.59601,-5.481172 13.07953,4.955891 26.99996,9.890079 26.99996,9.890079 1.99952,0.578586 2.60222,2.625476 -4.5e-4,3.857678 -3.44364,1.63035 -4.98302,2.737661 -8.66825,4.332513 -1.84143,0.918145 -3.17179,2.051731 -1.10246,4.475752 1.97187,2.309862 4.17912,3.868952 6.50961,5.914592 2.88394,2.7774 5.09105,4.11097 1.87498,6.67771 -3.87446,3.09218 -6.48119,5.64024 -6.48119,5.64024 -1.12699,0.75402 -3.96926,2.52493 -5.77531,-0.16232 -2.35398,-3.50251 -3.70314,-6.32228 -5.89644,-9.78268 -0.0222,-0.0222 -1.66579,-3.86389 -4.30266,-0.80633 -2.71221,3.14491 -3.33937,4.71767 -4.31185,6.11638 -1.38322,2.49163 -4.09232,2.08011 -4.65623,-0.72162 z"
       id="path1"
       sodipodi:nodetypes="cscscscscscsccc" /><path
       id="rect1"
       style="fill:#50b1f6;fill-opacity:1;stroke:none;stroke-width:3.8;stroke-linejoin:bevel;stroke-miterlimit:3.8;stroke-dasharray:15.2, 3.8, 3.8, 3.8, 3.8, 3.8;stroke-dashoffset:9.12;paint-order:stroke fill markers"
       d="m 36.791101,143.18512 c -1.575651,0 -2.845703,1.2681 -2.845703,2.84375 v 4.98828 H 9.5078981 c -1.9781895,0 -3.5722656,1.59212 -3.5722656,3.57031 v 24.83203 c 0,1.97819 1.5940761,3.57032 3.5722656,3.57032 H 54.099695 c 1.97819,0 3.570313,-1.59213 3.570313,-3.57032 v -24.83203 c 0,-0.10407 -0.005,-0.20683 -0.01367,-0.30859 v -8.25 c 0,-1.57565 -1.268099,-2.84375 -2.84375,-2.84375 z" /><path
       id="rect1-6"
       style="fill:#d9d9d9;fill-opacity:1;stroke:none;stroke-width:3.64042;stroke-linejoin:bevel;stroke-miterlimit:3.8;stroke-dasharray:14.5617, 3.64042, 3.64042, 3.64042, 3.64042, 3.64042;stroke-dashoffset:8.73701;paint-order:stroke fill markers"
       d="m 357.0564,76.726734 c -1.50948,0 -2.7262,1.214847 -2.7262,2.724328 v 4.778801 h -23.41126 c -1.89511,0 -3.42225,1.525262 -3.42225,3.420379 v 23.789218 c 0,1.89512 1.52714,3.42038 3.42225,3.42038 h 42.71919 c 1.89512,0 3.42038,-1.52526 3.42038,-3.42038 V 87.650242 c 0,-0.0997 -0.005,-0.198148 -0.0131,-0.295635 v -7.903545 c 0,-1.509481 -1.21484,-2.724328 -2.72432,-2.724328 z m -7.37454,11.589268 h 4.52152 v 8.823293 h 8.8921 v 4.521525 h -8.8921 v 8.91208 h -4.52152 v -8.91208 h -8.84327 v -4.521525 h 8.84327 z"
       sodipodi:nodetypes="sscssssssscsssccccccccccccc" /><rect
       style="fill:none;fill-opacity:1;stroke:#3df56b;stroke-width:3.71044;stroke-linejoin:bevel;stroke-miterlimit:3.8;stroke-dasharray:none;stroke-dashoffset:8.90505;stroke-opacity:1;paint-order:stroke fill markers"
       id="rect2"
       width="44.673271"
       height="45.48798"
       x="73.855217"
       y="137.85522"
       ry="3.5182285" /><text
       xml:space="preserve"
       style="font-size:32px;line-height:1.25;font-family:sans-serif;word-spacing:0px;fill:#3df56b;fill-opacity:1;stroke-width:1;stroke-dasharray:none"
       x="86.832527"
       y="171.56931"
       id="text3"><tspan
         sodipodi:role="line"
         id="tspan3"
         x="86.832527"
         y="171.56931"
         style="font-style:normal;font-variant:normal;font-weight:bold;font-stretch:normal;font-size:32px;font-family:'Liberation Mono';-inkscape-font-specification:'Liberation Mono Bold';fill:#3df56b;fill-opacity:1">T</tspan></text><rect
       style="fill:none;fill-opacity:1;stroke:#f58f3d;stroke-width:3.71044;stroke-linejoin:bevel;stroke-miterlimit:3.8;stroke-dasharray:none;stroke-dashoffset:8.90505;stroke-opacity:1;paint-order:stroke fill markers"
       id="rect2-7"
       width="44.673271"
       height="45.48798"
       x="137.85522"
       y="137.85522"
       ry="3.5182285" /><text
       xml:space="preserve"
       style="font-size:32px;line-height:1.25;font-family:sans-serif;word-spacing:0px;fill:#f5903d;fill-opacity:1;stroke-width:1;stroke-dasharray:none"
       x="150.35246"
       y="170.84428"
       id="text3-0"><tspan
         sodipodi:role="line"
         id="tspan3-9"
         x="150.35246"
         y="170.84428"
         style="font-style:normal;font-variant:normal;font-weight:bold;font-stretch:normal;font-size:32px;font-family:'Liberation Mono';-inkscape-font-specification:'Liberation Mono Bold';fill:#f5903d;fill-opacity:1">M</tspan></text><rect
       style="fill:none;fill-opacity:1;stroke:#3d99f5;stroke-width:3.71044;stroke-linejoin:bevel;stroke-miterlimit:3.8;stroke-dasharray:none;stroke-dashoffset:8.90505;stroke-opacity:1;paint-order:stroke fill markers"
       id="rect2-7-2"
       width="44.673271"
       height="45.48798"
       x="201.85522"
       y="137.85522"
       ry="3.5182285" /><text
       xml:space="preserve"
       style="font-size:32px;line-height:1.25;font-family:sans-serif;word-spacing:0px;fill:#3d99f5;fill-opacity:1;stroke-width:1;stroke-dasharray:none"
       x="214.35246"
       y="170.84428"
       id="text3-0-6"><tspan
         sodipodi:role="line"
         id="tspan3-9-1"
         x="214.35246"
         y="170.84428"
         style="font-style:normal;font-variant:normal;font-weight:bold;font-stretch:normal;font-size:32px;font-family:'Liberation Mono';-inkscape-font-specification:'Liberation Mono Bold';fill:#3d99f5;fill-opacity:1">S</tspan></text><rect
       style="fill:none;fill-opacity:1;stroke:#ab3df5;stroke-width:3.71044;stroke-linejoin:bevel;stroke-miterlimit:3.8;stroke-dasharray:none;stroke-dashoffset:8.90505;stroke-opacity:1;paint-order:stroke fill markers"
       id="rect2-7-0"
       width="44.673271"
       height="45.48798"
       x="9.8552198"
       y="201.85522"
       ry="3.5182285" /><text
       xml:space="preserve"
       style="font-size:32px;line-height:1.25;font-family:sans-serif;word-spacing:0px;fill:#aa3df5;fill-opacity:1;stroke-width:1;stroke-dasharray:none"
       x="22.352467"
       y="234.84428"
       id="text3-0-2"><tspan
         sodipodi:role="line"
         id="tspan3-9-3"
         x="22.352467"
         y="234.84428"
         style="font-style:normal;font-variant:normal;font-weight:bold;font-stretch:normal;font-size:32px;font-family:'Liberation Mono';-inkscape-font-specification:'Liberation Mono Bold';fill:#aa3df5;fill-opacity:1">M</tspan></text><rect
       style="fill:none;fill-opacity:1;stroke:#c9f53d;stroke-width:3.71044;stroke-linejoin:bevel;stroke-miterlimit:3.8;stroke-dasharray:none;stroke-dashoffset:8.90505;stroke-opacity:1;paint-order:stroke fill markers"
       id="rect2-7-0-2"
       width="44.673271"
       height="45.48798"
       x="73.855217"
       y="201.85522"
       ry="3.5182285" /><text
       xml:space="preserve"
       style="font-size:32px;line-height:1.25;font-family:sans-serif;word-spacing:0px;fill:#caf53d;fill-opacity:1;stroke-width:1;stroke-dasharray:none"
       x="86.352463"
       y="234.84428"
       id="text3-0-2-8"><tspan
         sodipodi:role="line"
         id="tspan3-9-3-9"
         x="86.352463"
         y="234.84428"
         style="font-style:normal;font-variant:normal;font-weight:bold;font-stretch:normal;font-size:32px;font-family:'Liberation Mono';-inkscape-font-specification:'Liberation Mono Bold';fill:#caf53d;fill-opacity:1">F</tspan></text><rect
       style="fill:none;fill-opacity:1;stroke:#3df5e0;stroke-width:3.71044;stroke-linejoin:bevel;stroke-miterlimit:3.8;stroke-dasharray:none;stroke-dashoffset:8.90505;stroke-opacity:1;paint-order:stroke fill markers"
       id="rect2-7-0-2-2"
       width="44.673271"
       height="45.48798"
       x="137.85522"
       y="201.85522"
       ry="3.5182285" /><text
       xml:space="preserve"
       style="font-size:32px;line-height:1.25;font-family:sans-serif;word-spacing:0px;fill:#3df5e0;fill-opacity:1;stroke-width:1;stroke-dasharray:none"
       x="150.35248"
       y="234.84428"
       id="text3-0-2-8-9"><tspan
         sodipodi:role="line"
         id="tspan3-9-3-9-3"
         x="150.35248"
         y="234.84428"
         style="font-style:normal;font-variant:normal;font-weight:bold;font-stretch:normal;font-size:32px;font-family:'Liberation Mono';-inkscape-font-specification:'Liberation Mono Bold';fill:#3df5e0;fill-opacity:1">L</tspan></text><rect
       style="fill:none;fill-opacity:1;stroke:#d9d9d9;stroke-width:3.71044;stroke-linejoin:bevel;stroke-miterlimit:3.8;stroke-dasharray:none;stroke-dashoffset:8.90505;stroke-opacity:1;paint-order:stroke fill markers"
       id="rect2-7-0-2-2-8"
       width="44.673271"
       height="45.48798"
       x="201.85522"
       y="201.85522"
       ry="3.5182285" /><text
       xml:space="preserve"
       style="font-size:32px;line-height:1.25;font-family:sans-serif;word-spacing:0px;fill:#d9d9d9;fill-opacity:1;stroke-width:1;stroke-dasharray:none"
       x="214.35248"
       y="234.8443"
       id="text3-0-2-8-9-4"><tspan
         sodipodi:role="line"
         id="tspan3-9-3-9-3-5"
         x="214.35248"
         y="234.8443"
         style="font-style:normal;font-variant:normal;font-weight:bold;font-stretch:normal;font-size:32px;font-family:'Liberation Mono';-inkscape-font-specification:'Liberation Mono Bold';fill:#d9d9d9;fill-opacity:1">?</tspan></text><circle
       style="fill:none;stroke:#d9d9d9;stroke-width:5;stroke-linejoin:bevel;stroke-miterlimit:3.8;stroke-dasharray:none;stroke-dashoffset:9.12;paint-order:stroke fill markers"
       id="path2"
       cx="288.09363"
       cy="32.461739"
       r="20.833576" /><path
       style="fill:none;stroke:#d9d9d9;stroke-width:4;stroke-linecap:butt;stroke-linejoin:miter;stroke-dasharray:none;stroke-opacity:1"
       d="m 259.64826,33.045292 h 15.54721"
       id="path3" /><path
       style="fill:none;stroke:#d9d9d9;stroke-width:4;stroke-linecap:butt;stroke-linejoin:miter;stroke-dasharray:none;stroke-opacity:1"
       d="m 301.40874,33.286611 h 14.5226"
       id="path3-36" /><path
       style="fill:none;stroke:#d9d9d9;stroke-width:4;stroke-linecap:butt;stroke-linejoin:miter;stroke-dasharray:none;stroke-opacity:1"
       d="M 287.84484,4.2283049 V 20.472495"
       id="path3-3" /><path
       style="fill:none;stroke:#d9d9d9;stroke-width:4;stroke-linecap:butt;stroke-linejoin:miter;stroke-dasharray:none;stroke-opacity:1"
       d="M 288.15666,45.101059 V 61.516017"
       id="path3-3-1" /><ellipse
       style="fill:#d9d9d9;fill-opacity:1;stroke:none;stroke-width:18.6033;stroke-linejoin:bevel;stroke-miterlimit:3.8;stroke-dasharray:none;stroke-dashoffset:9.12;stroke-opacity:1;paint-order:stroke fill markers"
       id="path4"
       cx="287.7757"
       cy="32.698864"
       rx="5.4416461"
       ry="5.3591514" /><path
       style="fill:#d9d9d9;fill-opacity:1;stroke:none;stroke-width:0.88258px;stroke-linecap:butt;stroke-linejoin:miter;stroke-opacity:1"
       d="m 264.73323,83.230069 h 11.01728 v 15.221782 c 0.59533,14.903379 24.53361,13.606989 24.95047,1.016894 V 82.721626 l 10.80902,0 V 100.6551 c -3.31335,24.85952 -44.00961,24.31055 -46.94625,-1.016875 z"
       id="path11"
       sodipodi:nodetypes="ccccccccc" /><rect
       style="fill:none;fill-opacity:1;stroke:#d9d9d9;stroke-width:2.14735;stroke-linejoin:bevel;stroke-miterlimit:3.8;stroke-dasharray:none;stroke-dashoffset:9.12;stroke-opacity:1;paint-order:stroke fill markers"
       id="rect12"
       width="8.875577"
       height="14.014317"
       x="265.80045"
       y="70.739532" /><rect
       style="fill:none;fill-opacity:1;stroke:#d9d9d9;stroke-width:2.02869;stroke-linejoin:bevel;stroke-miterlimit:3.8;stroke-dasharray:none;stroke-dashoffset:9.12;stroke-opacity:1;paint-order:stroke fill markers"
       id="rect12-1"
       width="8.7094698"
       height="12.746954"
       x="301.78857"
       y="71.081215" /><path
       style="fill:#d9d9d9;fill-opacity:1;stroke:none;stroke-width:1.19186px;stroke-linecap:butt;stroke-linejoin:miter;stroke-opacity:1"
       d="m 271.1006,175.47891 c 0.62129,1.2534 3.01378,9.5921 12.78505,5.90701 9.95759,-3.75534 12.46138,-10.3575 12.46138,-10.3575 0,0 3.07489,-10.03384 0,-11.08577 -3.07488,-1.05193 -7.35553,-1.96262 -13.75606,0.64734 -5.44955,2.22217 -9.38503,3.86633 -11.00487,8.17272 -1.65882,4.41003 -0.4855,6.7162 -0.4855,6.7162 z"
       id="path12"
       sodipodi:nodetypes="cscsssc" /><path
       style="fill:#d9d9d9;fill-opacity:1;stroke:none;stroke-width:1.19186px;stroke-linecap:butt;stroke-linejoin:miter;stroke-opacity:1"
       d="m 277.80302,180.2733 c 0,0 -3.44547,0.2023 -3.36455,2.28595 0.0809,2.08363 2.16455,2.44776 2.16455,2.44776 0,0 11.00589,-0.0828 12.48161,-0.14161 1.14703,-0.0456 3.9327,-0.27163 2.24548,-2.10386 -1.4082,-1.52923 -4.85732,-2.02233 -7.44446,-2.36686 -1.93947,-0.17258 -3.84857,-0.39069 -6.08263,-0.12138 z"
       id="path13"
       sodipodi:nodetypes="cscsscc" /><path
       style="fill:#d9d9d9;fill-opacity:1;stroke:none;stroke-width:1.19186px;stroke-linecap:butt;stroke-linejoin:miter;stroke-opacity:1"
       d="m 290.85611,174.46049 c 0,0.40459 4.11531,10.08124 6.21919,10.64767 2.10386,0.56643 8.0918,-0.16184 8.0918,-0.16184 0,0 2.40867,-3.98027 -0.77398,-4.23634 -3.362,-0.27052 -4.29269,2.51961 -5.82694,0.58929 -1.54119,-1.93906 -2.12673,-10.64193 -2.12673,-10.64193 z"
       id="path14"
       sodipodi:nodetypes="cscsscc" /><path
       style="fill:#d9d9d9;fill-opacity:1;stroke:none;stroke-width:1.19186px;stroke-linecap:butt;stroke-linejoin:miter;stroke-opacity:1"
       d="m 274.49916,173.69872 c 0.81037,2.34304 1.0633,7.85636 -3.19627,5.74517 -4.90941,-2.43327 -4.91938,-9.19694 -2.2657,-9.50787 2.13963,-0.25071 4.13192,0.76447 5.46197,3.7627 z"
       id="path15"
       sodipodi:nodetypes="cssc" /><path
       style="fill:#d9d9d9;fill-opacity:1;stroke:none;stroke-width:1.19186px;stroke-linecap:butt;stroke-linejoin:miter;stroke-opacity:1"
       d="m 290.81483,159.79034 c 0,0 6.87642,3.06949 10.9858,0 3.67423,-2.74446 3.37599,-3.8349 3.73143,-4.32856 0.43112,0.0795 1.54978,-1.84421 -0.013,-2.20812 -0.71913,-0.16746 -2.14937,-1.04093 -3.79581,-2.56297 -2.14372,-1.98173 -1.522,-2.40459 -3.9278,-4.0032 -2.68401,-1.78348 -5.37846,-1.83097 -8.12491,0.11442 -2.74645,1.94539 -2.5748,8.69708 -2.5748,8.69708 0.45981,2.7953 2.06301,3.58965 3.71915,4.29133 z"
       id="path16"
       sodipodi:nodetypes="cscssssccc" /><path
       style="fill:#d9d9d9;fill-opacity:1;stroke:none;stroke-width:1.19186px;stroke-linecap:butt;stroke-linejoin:miter;stroke-opacity:1"
       d="m 292.30113,147.40035 c 0,0 -2.38708,-6.75666 -4.61234,-9.26511 -2.22524,-2.50847 -3.39855,-5.50243 -5.30013,-6.31162 -1.90157,-0.80917 -3.11534,-0.72826 -3.27717,1.17331 -0.16185,1.90158 1.41606,6.14977 2.468,7.64676 1.05193,1.49699 7.52537,10.11476 7.52537,10.11476 z"
       id="path17" /><path
       style="fill:#d9d9d9;fill-opacity:1;stroke:none;stroke-width:1.19186px;stroke-linecap:butt;stroke-linejoin:miter;stroke-opacity:1"
       d="m 285.0185,143.15215 c -3.1754,-3.27479 -5.12069,-5.29598 -6.7162,-6.23069 -1.30452,-0.76424 -2.11915,-1.97062 -4.16727,-0.60688 -1.61662,1.07644 -0.47193,4.70539 2.34662,7.88951 1.18286,1.33631 5.86916,4.93482 8.05135,5.86656 2.51092,1.0721 4.59894,2.71144 4.57186,2.54893 l 1.69929,-1.90158 z"
       id="path18"
       sodipodi:nodetypes="cssssccc" /><path
       id="path20"
       style="fill:#d9d9d9;stroke-width:0.862065;stroke-linejoin:bevel;stroke-miterlimit:3.8;stroke-dashoffset:9.12;paint-order:stroke fill markers"
       d="M 286.37109 204.54688 L 286.37109 219.22266 L 291.11523 220.88086 C 291.11523 220.88086 288.62065 222.05215 286.37109 223.07617 L 286.37109 230.76367 L 286.37109 231.35156 L 286.40234 231.35156 A 14.48908 8.9547448 0 0 0 300.86133 239.7207 A 14.48908 8.9547448 0 0 0 315.31836 231.35156 L 315.34375 231.35156 L 315.34375 231.04297 A 14.48908 8.9547448 0 0 0 315.34961 230.76367 A 14.48908 8.9547448 0 0 0 315.34375 230.48828 L 315.34375 204.54688 L 314.91016 204.54688 A 14.071055 7.391151 0 0 1 300.83984 211.86328 A 14.071055 7.391151 0 0 1 286.76953 204.54688 L 286.37109 204.54688 z " /><ellipse
       style="fill:none;fill-opacity:1;stroke:#d9d9d9;stroke-width:2;stroke-linejoin:bevel;stroke-miterlimit:3.8;stroke-dasharray:none;stroke-dashoffset:9.12;stroke-opacity:1;paint-order:stroke fill markers"
       id="path20-3-1"
       cx="300.85883"
       cy="204.60294"
       rx="13.473692"
       ry="7.3907938" /><g
       id="g20"
       style="fill:#d9d9d9;fill-opacity:1;stroke-linejoin:bevel;stroke-miterlimit:3.8;stroke-dashoffset:9.12;paint-order:stroke fill markers"
       transform="matrix(1.0639593,0,0,1.0639593,-4.2807172,-24.115057)"><path
         id="path33"
         style="fill:#d9d9d9;fill-opacity:1;fill-rule:evenodd;stroke:none;stroke-width:1.14065;stroke-linejoin:round"
         d="m 281.0197,230.2107 -14.18946,6.33203 -14.23047,-5.19336 v 21.00781 l 14.23047,6.08594 v -12.88867 l 0.0879,-0.043 14.10157,5.50781 z" /><path
         d="m 252.59985,252.35628 14.23094,6.0878 14.18923,-7.42407 -14.10148,-5.50768 z"
         style="fill:#d9d9d9;fill-opacity:1;fill-rule:evenodd;stroke:none;stroke-linejoin:round"
         id="path35" /><path
         d="m 253.4779,231.21736 13.34068,4.99654 13.65153,-6.09328 -13.5671,-4.52042 z"
         style="fill:none;fill-opacity:1;fill-rule:evenodd;stroke:#d9d9d9;stroke-width:1.87977;stroke-linejoin:round;stroke-miterlimit:3.8;stroke-dasharray:none;stroke-dashoffset:9.12;stroke-opacity:1;paint-order:stroke fill markers"
         id="path36-6"
         sodipodi:nodetypes="ccccc" /><path
         d="m 266.83079,236.54334 v 21.90074 l 14.18923,-7.42407 v -20.80995 z"
         style="fill:#d9d9d9;fill-opacity:1;fill-rule:evenodd;stroke:none;stroke-linejoin:round"
         id="path37" /></g><path
       id="rect3"
       style="fill:#d9d9d9;stroke-width:0.645683;stroke-linejoin:bevel;stroke-miterlimit:3.8;stroke-dashoffset:9.12;paint-order:stroke fill markers"
       d="M 346.97744,13.180207 V 29.218541 H 330.9002 v 8.218954 h 16.07724 v 16.202953 h 8.21896 V 37.437495 h 16.16404 V 29.218541 H 355.1964 V 13.180207 Z" /><path
       id="path21"
       style="fill:#d9d9d9;fill-opacity:1;stroke:none;stroke-width:1.14024px;stroke-linecap:butt;stroke-linejoin:miter;stroke-opacity:1"
       d="m 337.98507,140.4635 c -4.74206,0 -4.17679,6.52062 -4.17679,6.52062 h 18.21339 v 0.003 h 19.18058 c 0,0 0.56528,-6.5206 -4.17679,-6.5206 h -13.89574 v -0.003 z" /><path
       id="path22"
       style="fill:none;stroke:#d9d9d9;stroke-width:2.02296;stroke-linecap:butt;stroke-linejoin:miter;stroke-dasharray:none;stroke-opacity:1"
       d="m 346.69264,135.59137 c -0.97998,-0.10845 -1.92754,0.62617 -2.22896,1.69397 -0.45158,1.32251 -0.22729,2.75431 -0.27428,4.1362 v 1.75918 l 7.92725,1.86164 c 2.64926,-0.61628 5.29851,-1.23255 7.94777,-1.84882 -0.003,-1.44193 0.002,-2.88498 0.007,-4.32545 -0.0527,-1.26062 -0.49624,-2.76584 -1.66778,-3.15059 -0.67214,-0.20346 -0.85152,-0.13111 -1.98392,-0.11994 -3.19418,-0.0486 -5.65195,-0.0785 -9.72675,-0.006 z"
       sodipodi:nodetypes="ccccccccccc" /><g
       id="rect4"
       style="opacity:1"
       transform="matrix(0.90509586,0,0,0.89156298,32.783886,17.522603)"><path
         id="path19"
         style="fill:#d9d9d9;fill-opacity:1;stroke-width:4;stroke-linejoin:bevel;stroke-miterlimit:3.8;stroke-dashoffset:9.12;paint-order:stroke fill markers"
         d="m 388.28301,150.83741 v 18.27569 a 4,4 0 0 0 4.0008,4.00008 h 24.93179 a 4,4 0 0 0 3.99925,-4.00008 v -18.21173 a 0.06340491,0.06340491 0 0 0 -0.0639,-0.064 z m 6.96868,2.73935 h 0.86155 c 0.83558,0 1.50809,0.58861 1.50809,1.31926 v 14.54554 c 0,0.73066 -0.67251,1.31818 -1.50809,1.31818 h -0.86155 c -0.83557,0 -1.50809,-0.58752 -1.50809,-1.31818 v -14.54554 c 0,-0.73065 0.67252,-1.31926 1.50809,-1.31926 z m 17.11403,0.052 h 0.86154 c 0.83558,0 1.50809,0.58753 1.50809,1.31818 v 14.54554 c 0,0.73066 -0.67251,1.31927 -1.50809,1.31927 h -0.86154 c -0.83557,0 -1.50809,-0.58861 -1.50809,-1.31927 v -14.54554 c 0,-0.73065 0.67252,-1.31818 1.50809,-1.31818 z m -8.57649,0.0401 h 0.86155 c 0.83558,0 1.50964,0.58753 1.50964,1.31818 v 14.54554 c 0,0.73066 -0.67406,1.31927 -1.50964,1.31927 h -0.86155 c -0.83557,0 -1.50809,-0.58861 -1.50809,-1.31927 v -14.54554 c 0,-0.73065 0.67252,-1.31818 1.50809,-1.31818 z"
         transform="matrix(1.2536547,0,0,1.8017233,-154.20055,-124.01337)" /></g></g></svg>
