<?xml version="1.0" encoding="UTF-8" standalone="no"?>
<!-- Created with Inkscape (http://www.inkscape.org/) -->

<svg
   width="256"
   height="256"
   viewBox="0 0 256 256"
   version="1.1"
   id="svg1"
   inkscape:export-filename="ui_atlas.png"
   inkscape:export-xdpi="96"
   inkscape:export-ydpi="96"
   inkscape:version="1.4.2 (ebf0e940d0, 2025-05-08)"
   sodipodi:docname="ui_atlas.svg"
   xmlns:inkscape="http://www.inkscape.org/namespaces/inkscape"
   xmlns:sodipodi="http://sodipodi.sourceforge.net/DTD/sodipodi-0.dtd"
   xmlns="http://www.w3.org/2000/svg"
   xmlns:svg="http://www.w3.org/2000/svg">
  <sodipodi:namedview
     id="namedview1"
     pagecolor="#232323"
     bordercolor="#111111"
     borderopacity="1"
     inkscape:showpageshadow="0"
     inkscape:pageopacity="0"
     inkscape:pagecheckerboard="1"
     inkscape:deskcolor="#000000"
     inkscape:document-units="px"
     showgrid="true"
     inkscape:zoom="7.3645823"
     inkscape:cx="83.439898"
     inkscape:cy="166.47244"
     inkscape:window-width="2560"
     inkscape:window-height="1406"
     inkscape:window-x="0"
     inkscape:window-y="0"
     inkscape:window-maximized="1"
     inkscape:current-layer="layer1">
    <inkscape:grid
       id="grid2"
       units="px"
       originx="0"
       originy="0"
       spacingx="64"
       spacingy="64"
       empcolor="#0099e5"
       empopacity="0.30196078"
       color="#0099e5"
       opacity="0.14901961"
       empspacing="5"
       enabled="true"
       visible="true" />
  </sodipodi:namedview>
  <defs
     id="defs1">
    <marker
       style="overflow:visible"
       id="marker10"
       refX="0"
       refY="0"
       orient="auto-start-reverse"
       inkscape:stockid="Rounded arrow"
       markerWidth="0.5"
       markerHeight="0.5"
       viewBox="0 0 1 1"
       inkscape:isstock="true"
       inkscape:collect="always"
       preserveAspectRatio="xMidYMid">
      <path
         transform="scale(0.7)"
         d="m -0.21114562,-4.1055728 6.42229122,3.21114561 a 1,1 90 0 1 0,1.78885438 L -0.21114562,4.1055728 A 1.236068,1.236068 31.717474 0 1 -2,3 v -6 a 1.236068,1.236068 148.28253 0 1 1.78885438,-1.1055728 z"
         style="fill:context-stroke;fill-rule:evenodd;stroke:none"
         id="path10" />
    </marker>
    <marker
       style="overflow:visible"
       id="marker9"
       refX="0"
       refY="0"
       orient="auto-start-reverse"
       inkscape:stockid="Concave triangle arrow"
       markerWidth="0.5"
       markerHeight="0.5"
       viewBox="0 0 1 1"
       inkscape:isstock="true"
       inkscape:collect="always"
       preserveAspectRatio="xMidYMid">
      <path
         transform="scale(0.7)"
         d="M -2,-4 9,0 -2,4 c 2,-2.33 2,-5.66 0,-8 z"
         style="fill:context-stroke;fill-rule:evenodd;stroke:none"
         id="path7" />
    </marker>
    <marker
       style="overflow:visible"
       id="ConcaveTriangle"
       refX="0"
       refY="0"
       orient="auto-start-reverse"
       inkscape:stockid="Concave triangle arrow"
       markerWidth="0.5"
       markerHeight="0.5"
       viewBox="0 0 1 1"
       inkscape:isstock="true"
       inkscape:collect="always"
       preserveAspectRatio="xMidYMid">
      <path
         transform="scale(0.7)"
         d="M -2,-4 9,0 -2,4 c 2,-2.33 2,-5.66 0,-8 z"
         style="fill:context-stroke;fill-rule:evenodd;stroke:none"
         id="path9" />
    </marker>
    <marker
       style="overflow:visible"
       id="marker6"
       refX="0"
       refY="0"
       orient="auto-start-reverse"
       inkscape:stockid="Concave triangle arrow"
       markerWidth="0.5"
       markerHeight="0.5"
       viewBox="0 0 1 1"
       inkscape:isstock="true"
       inkscape:collect="always"
       preserveAspectRatio="xMidYMid">
      <path
         transform="scale(0.7)"
         d="M -2,-4 9,0 -2,4 c 2,-2.33 2,-5.66 0,-8 z"
         style="fill:context-stroke;fill-rule:evenodd;stroke:none"
         id="path6" />
    </marker>
    <marker
       style="overflow:visible"
       id="marker5"
       refX="0"
       refY="0"
       orient="auto-start-reverse"
       inkscape:stockid="Concave triangle arrow"
       markerWidth="0.5"
       markerHeight="0.5"
       viewBox="0 0 1 1"
       inkscape:isstock="true"
       inkscape:collect="always"
       preserveAspectRatio="xMidYMid">
      <path
         transform="scale(0.7)"
         d="M -2,-4 9,0 -2,4 c 2,-2.33 2,-5.66 0,-8 z"
         style="fill:context-stroke;fill-rule:evenodd;stroke:none"
         id="path5" />
    </marker>
    <marker
       style="overflow:visible"
       id="RoundedArrow"
       refX="0"
       refY="0"
       orient="auto-start-reverse"
       inkscape:stockid="Rounded arrow"
       markerWidth="0.4"
       markerHeight="0.4"
       viewBox="0 0 1 1"
       inkscape:isstock="true"
       inkscape:collect="always"
       preserveAspectRatio="xMidYMid">
      <path
         transform="scale(0.7)"
         d="m -0.21114562,-4.1055728 6.42229122,3.21114561 a 1,1 90 0 1 0,1.78885438 L -0.21114562,4.1055728 A 1.236068,1.236068 31.717474 0 1 -2,3 v -6 a 1.236068,1.236068 148.28253 0 1 1.78885438,-1.1055728 z"
         style="fill:context-stroke;fill-rule:evenodd;stroke:none"
         id="path8" />
    </marker>
    <marker
       style="overflow:visible"
       id="RoundedArrow-2"
       refX="0"
       refY="0"
       orient="auto-start-reverse"
       inkscape:stockid="Rounded arrow"
       markerWidth="0.40000001"
       markerHeight="0.40000001"
       viewBox="0 0 1 1"
       inkscape:isstock="true"
       inkscape:collect="always"
       preserveAspectRatio="xMidYMid">
      <path
         transform="scale(0.7)"
         d="m -0.21114562,-4.1055728 6.42229122,3.21114561 a 1,1 90 0 1 0,1.78885438 L -0.21114562,4.1055728 A 1.236068,1.236068 31.717474 0 1 -2,3 v -6 a 1.236068,1.236068 148.28253 0 1 1.78885438,-1.1055728 z"
         style="fill:context-stroke;fill-rule:evenodd;stroke:none"
         id="path8-9" />
    </marker>
  </defs>
  <g
     inkscape:label="Layer 1"
     inkscape:groupmode="layer"
     id="layer1">
    <path
       style="fill:none;stroke:#dadada;stroke-width:8;stroke-linecap:butt;stroke-linejoin:miter;stroke-dasharray:none;stroke-opacity:1;fill-opacity:1"
       d="m 8,20 l 20,20 q 4,4 8,0 l 20,-20"
       id="arrow-down"
       sodipodi:nodetypes="cccc" />
    <path
       style="fill:none;fill-opacity:1;stroke:#dadada;stroke-width:8;stroke-linecap:butt;stroke-linejoin:miter;stroke-dasharray:none;stroke-opacity:1"
       d="m 72,44 l 20,-20 q 4,-4 8,0 l 20,20"
       id="arrow-up"
       sodipodi:nodetypes="cccc" />
    <path
       style="fill:none;fill-opacity:1;stroke:#dadada;stroke-width:8;stroke-linecap:butt;stroke-linejoin:miter;stroke-dasharray:none;stroke-opacity:1"
       d="m 172,8 l -20,20 q -4,4 0,8 l 20,20"
       id="arrow-left"
       sodipodi:nodetypes="cccc" />
    <path
       style="fill:none;fill-opacity:1;stroke:#dadada;stroke-width:8;stroke-linecap:butt;stroke-linejoin:miter;stroke-dasharray:none;stroke-opacity:1"
       d="m 212,8 20,20 q 4,4 0,8 l -20,20"
       id="arrow-right"
       sodipodi:nodetypes="cccc" />
    <path
       style="fill:none;stroke:#d9d9d9;stroke-width:5;stroke-linecap:butt;stroke-linejoin:miter;stroke-opacity:1;stroke-dasharray:none;marker-start:url(#ConcaveTriangle);marker-end:url(#marker9)"
       d="m 16, 96 h 32"
       id="move-hor" />
    <path
       style="fill:none;stroke:#d9d9d9;stroke-width:5;stroke-linecap:butt;stroke-linejoin:miter;stroke-dasharray:none;stroke-opacity:1;marker-start:url(#marker6);marker-end:url(#marker5)"
       d="M 32,80 v 32"
       id="move-vert" />
    <path
       style="fill:none;stroke:#d9d9d9;stroke-width:6;stroke-linejoin:bevel;stroke-miterlimit:3.8;stroke-dasharray:none;stroke-opacity:1;marker-end:url(#RoundedArrow);paint-order:stroke fill markers"
       id="rotate"
       sodipodi:type="arc"
       sodipodi:cx="96"
       sodipodi:cy="96"
       sodipodi:rx="24"
       sodipodi:ry="24"
       sodipodi:start="1.5707963"
       sodipodi:end="3.9269908"
       sodipodi:arc-type="arc"
       d="M 96,120 A 24,24 0 0 1 73.826891,105.1844 24,24 0 0 1 79.029437,79.029438"
       sodipodi:open="true" />
    <path
       style="fill:none;stroke:#d9d9d9;stroke-width:6;stroke-linejoin:bevel;stroke-miterlimit:3.8;stroke-dasharray:none;stroke-opacity:1;marker-end:url(#RoundedArrow-2);paint-order:stroke fill markers"
       id="rotate-7"
       sodipodi:type="arc"
       sodipodi:cx="-96.000008"
       sodipodi:cy="-95"
       sodipodi:rx="24"
       sodipodi:ry="24"
       sodipodi:start="1.5707963"
       sodipodi:end="3.9269908"
       sodipodi:arc-type="arc"
       d="m -96.000008,-71 a 24,24 0 0 1 -22.173112,-14.815597 24,24 0 0 1 5.20255,-26.154963"
       sodipodi:open="true"
       transform="scale(-1)" />
    <path
       style="fill:none;stroke:#d9d9d9;stroke-width:3;stroke-linecap:butt;stroke-linejoin:miter;stroke-dasharray:none;stroke-opacity:1;marker-end:url(#marker10)"
       d="M 150.2884,105.60394 172.36886,83.523473"
       id="scale-arrow" />
    <rect
       style="fill:none;stroke:#d9d9d9;stroke-width:4.22625;stroke-linejoin:bevel;stroke-miterlimit:3.8;stroke-dasharray:16.905, 4.22625, 4.22625, 4.22625, 4.22625, 4.22625;stroke-dashoffset:10.143;stroke-opacity:1;paint-order:stroke fill markers"
       id="rect10"
       width="39.43483"
       height="37.391487"
       x="145.66794"
       y="70.699768"
       ry="0.28890944" />
    <rect
       style="fill:#d9d9d9;fill-opacity:1;stroke:none;stroke-width:5.27017;stroke-linejoin:bevel;stroke-miterlimit:3.8;stroke-dasharray:5.27017, 10.5403;stroke-dashoffset:0;stroke-opacity:1;paint-order:stroke fill markers"
       id="rect11"
       width="23.471994"
       height="23.471994"
       x="133.88203"
       y="98.532837"
       ry="0.80063331" />
    <path
       style="fill:#d9d9d9;fill-opacity:1;stroke:none;stroke-width:1.19551px;stroke-linecap:butt;stroke-linejoin:miter;stroke-opacity:1"
       d="m 206.85758,111.40842 -1.06621,-30.603142 c -0.24757,-1.45777 -0.76603,-8.649581 7.59601,-5.481172 13.07953,4.955891 25.23475,10.433219 25.23475,10.433219 0,0 5.57927,1.918032 3.73364,3.246645 -2.66348,1.917368 -6.92101,3.075115 -10.63713,4.400406 -1.6989,0.511165 -3.29387,1.949606 -1.10246,4.475752 1.99015,2.294132 4.17912,3.868952 6.50961,5.914592 2.88394,2.7774 5.09105,4.11097 1.87498,6.67771 -3.87446,3.09218 -6.48119,5.64024 -6.48119,5.64024 -1.12699,0.75402 -3.96926,2.52493 -5.77531,-0.16232 -2.35398,-3.50251 -3.70314,-6.32228 -5.89644,-9.78268 0,0 -1.56986,-3.76796 -4.30266,-0.80633 -2.81625,3.05209 -4.0183,4.64978 -4.99078,6.04849 -2.19799,3.18457 -4.70203,5.02463 -4.69681,-0.001 z"
       id="path1"
       sodipodi:nodetypes="ccscscscscscsccc" />
    <path
       id="rect1"
       style="fill:#50b1f6;fill-opacity:1;stroke:none;stroke-width:3.8;stroke-linejoin:bevel;stroke-miterlimit:3.8;stroke-dasharray:15.2, 3.8, 3.8, 3.8, 3.8, 3.8;stroke-dashoffset:9.12;paint-order:stroke fill markers"
       d="m 36.791101,143.18512 c -1.575651,0 -2.845703,1.2681 -2.845703,2.84375 v 4.98828 H 9.5078981 c -1.9781895,0 -3.5722656,1.59212 -3.5722656,3.57031 v 24.83203 c 0,1.97819 1.5940761,3.57032 3.5722656,3.57032 H 54.099695 c 1.97819,0 3.570313,-1.59213 3.570313,-3.57032 v -24.83203 c 0,-0.10407 -0.005,-0.20683 -0.01367,-0.30859 v -8.25 c 0,-1.57565 -1.268099,-2.84375 -2.84375,-2.84375 z" />
    <rect
       style="fill:none;fill-opacity:1;stroke:#dadada;stroke-width:3.71044;stroke-linejoin:bevel;stroke-miterlimit:3.8;stroke-dasharray:none;stroke-dashoffset:8.90505;paint-order:stroke fill markers;stroke-opacity:1"
       id="rect2"
       width="44.673271"
       height="45.48798"
       x="73.052345"
       y="137.34654"
       ry="3.5182285" />
    <text
       xml:space="preserve"
       style="font-size:32px;line-height:1.25;font-family:sans-serif;word-spacing:0px;fill:#d9d9d9;fill-opacity:1;stroke-width:1;stroke-dasharray:none"
       x="85.680351"
       y="170.95335"
       id="text3"><tspan
         sodipodi:role="line"
         id="tspan3"
         x="85.680351"
         y="170.95335"
         style="font-style:normal;font-variant:normal;font-weight:bold;font-stretch:normal;font-size:32px;font-family:'Liberation Mono';-inkscape-font-specification:'Liberation Mono Bold'">T</tspan></text>
  </g>
</svg>
